<?xml version="1.0" standalone="no"?>
<!DOCTYPE svg PUBLIC "-//W3C//DTD SVG 1.1//EN" "http://www.w3.org/Graphics/SVG/1.1/DTD/svg11.dtd" >
<svg xmlns="http://www.w3.org/2000/svg">
<metadata>
This is a custom SVG webfont generated by Font Squirrel.
Copyright   : Copyright c 2010 Yanone httpyanonedetypedesign All rights reservedThis Font Software is licensed under the SIL Open Font License Version 11This license is available with a FAQ at httpscriptssilorgOFL
Designer    : Yanone
Foundry     : Yanone Font Production Not for release
Foundry URL : httpyanonedetypedesign
</metadata>
<defs>
<font id="YanoneKaffeesatzLight" horiz-adv-x="884" >
<font-face units-per-em="2048" ascent="1638" descent="-410" />
<missing-glyph horiz-adv-x="352" />
<glyph unicode=" "  horiz-adv-x="352" />
<glyph unicode="&#x09;" horiz-adv-x="352" />
<glyph unicode="&#xa0;" horiz-adv-x="352" />
<glyph unicode="!" horiz-adv-x="387" d="M104 82q0 37 24 64.5t65 27.5q47 0 68.5 -26.5t21.5 -65.5q0 -41 -25 -66.5t-65 -25.5q-47 0 -68 24.5t-21 67.5zM125 1415q0 23 29.5 28t115.5 5l-18 -1006q-2 -35 -26.5 -43t-86.5 -8z" />
<glyph unicode="&#x22;" horiz-adv-x="497" d="M72 1544q0 55 6 60q6 2 22.5 3t33 1t32.5 -1t22 -1q2 -41 -1 -108.5t-9 -132.5t-12 -114t-10 -53q-2 -2 -13 -2h-20h-31q-2 8 -5 48t-6 93.5t-6 109.5t-3 97zM307 1544q0 55 6 60q6 2 22.5 3t33 1t33 -1t22.5 -1q2 -41 -1 -108.5t-9 -132.5t-12.5 -114t-10.5 -53 q-2 -2 -12 -2h-21h-30q-2 8 -5.5 48t-6.5 93.5t-6 109.5t-3 97z" />
<glyph unicode="#" d="M78 408q0 57 3 75.5t23 18.5h109l14 254h-149q0 57 3 75.5t23 18.5h127l9 147q2 20 22.5 23.5t79.5 3.5l-10 -174h231l8 147q2 20 23.5 23.5t81.5 3.5l-10 -174h143q0 -59 -3 -76.5t-26 -17.5h-118l-15 -254h162q0 -59 -3 -76.5t-26 -17.5h-137l-8 -162 q-2 -20 -23.5 -23.5t-81.5 -3.5l11 189h-232l-8 -162q-2 -20 -23.5 -23.5t-78.5 -3.5l10 189h-131zM313 502h232l14 254h-231z" />
<glyph unicode="$" d="M135 72q0 6 3 17t8.5 24.5t11.5 26t14 20.5q29 -25 82 -44.5t145 -19.5q123 0 178.5 60.5t55.5 160.5q0 66 -30 121.5t-107 128.5l-230 215q-61 59 -94 116.5t-33 119.5q0 102 72 165.5t201 76.5v198q0 33 24.5 42t77.5 9v-247q117 -6 168 -32t51 -34q0 -14 -8 -40 t-25 -42q-23 16 -79 31.5t-134 15.5q-104 0 -165.5 -33.5t-61.5 -111.5q0 -47 28.5 -90t78.5 -90l251 -234q74 -72 104 -137.5t30 -149.5q0 -61 -14.5 -115.5t-46.5 -97.5t-83 -71.5t-127 -38.5v-193q0 -31 -23.5 -40t-76.5 -9v236q-66 2 -112 12t-75.5 23.5t-44 27 t-14.5 23.5z" />
<glyph unicode="%" horiz-adv-x="1458" d="M125 1073q0 199 77 288t212 89q68 0 119 -17.5t84.5 -60.5t51 -115.5t17.5 -181.5q0 -193 -73.5 -286t-209.5 -93q-66 0 -118 13.5t-87.5 54.5t-54 114.5t-18.5 194.5zM233 1065q0 -86 11.5 -140.5t33 -85t52 -42t71.5 -11.5q82 0 130.5 68t48.5 221q0 86 -10.5 141.5 t-32 86t-52 43t-71.5 12.5q-82 0 -131.5 -63.5t-49.5 -229.5zM256 29l862 1421q18 -6 33 -14q12 -6 22.5 -15.5t10.5 -21.5q0 -2 -37 -64.5t-97.5 -162t-138 -227.5t-157.5 -259q-188 -309 -428 -702q-20 2 -35 10q-14 6 -24.5 14.5t-10.5 20.5zM772 360q0 199 77 288 t212 89q68 0 119 -17.5t84.5 -60.5t51 -115.5t17.5 -181.5q0 -193 -73.5 -285.5t-208.5 -92.5q-66 0 -118 13t-88 54t-54.5 114.5t-18.5 194.5zM879 350q0 -86 11 -140t32.5 -85t53.5 -42t73 -11q80 0 129 67.5t49 220.5q0 86 -10.5 141.5t-32 86t-52 43t-71.5 12.5 q-84 0 -133 -63.5t-49 -229.5z" />
<glyph unicode="&#x26;" horiz-adv-x="1050" d="M74 352q0 63 19.5 121.5t52 107t74.5 86.5t89 64q-74 123 -121 234.5t-47 197.5q0 76 26 130.5t72 88t108.5 49t135.5 15.5q133 0 214 -31t81 -59q0 -23 -8 -45.5t-18 -34.5q-102 70 -258 70q-45 0 -87 -7.5t-75 -29t-52.5 -59.5t-19.5 -101q0 -66 45 -166t116 -214 t157 -229.5t170 -213.5q23 74 28.5 143.5t5.5 105.5q0 164 -50 276t-122 167q59 10 116.5 11t98.5 1h96q44 0 85 -4q4 -12 4 -45q0 -23 -14.5 -36t-69.5 -13l-148 2q14 -16 33.5 -45t37 -74t30 -107.5t12.5 -148.5q0 -27 -2 -64.5t-8.5 -80.5t-18.5 -90.5t-31 -92.5 q53 -59 98.5 -101t74.5 -58q-2 -14 -9.5 -29.5t-17.5 -29t-21.5 -22.5t-23.5 -9q-14 0 -58.5 38.5t-103.5 104.5q-49 -63 -127 -104t-194 -41q-115 0 -188 32.5t-115 85t-57 119.5t-15 135zM190 346q0 -45 11.5 -91t39 -84t77 -61.5t124.5 -23.5q92 0 151.5 36t98.5 89 q-80 92 -166 204.5t-164 231.5q-72 -41 -122 -115.5t-50 -185.5z" />
<glyph unicode="'" horiz-adv-x="262" d="M72 1544q0 55 6 60q6 2 22.5 3t33 1t32.5 -1t22 -1q2 -41 -1 -108.5t-9 -132.5t-12 -114t-10 -53q-2 -2 -13 -2h-20h-31q-2 8 -5 48t-6 93.5t-6 109.5t-3 97z" />
<glyph unicode="(" horiz-adv-x="602" d="M141 659q0 168 24.5 306.5t61.5 249t81 191.5t84 135t67.5 81t34.5 27q25 0 38 -17.5t23 -56.5q-43 -53 -95 -134t-97.5 -192.5t-76 -258t-30.5 -326.5q0 -197 33 -360t80 -289t98 -211t88 -128q-8 -35 -23.5 -58.5t-39.5 -23.5q-8 0 -38 30t-69 89.5t-82 149.5 t-79 207.5t-59.5 265t-23.5 323.5z" />
<glyph unicode=")" horiz-adv-x="602" d="M47 -324q37 47 89 132.5t98.5 209t79 284.5t32.5 362q0 176 -29.5 320t-74.5 258t-97.5 197t-97.5 136q10 39 23.5 56.5t38.5 17.5q6 0 33.5 -26t66.5 -79t83 -135t81 -191.5t61.5 -249t24.5 -309.5t-23.5 -315t-59.5 -264t-78 -209t-81 -151.5t-68.5 -93.5t-37.5 -32 q-27 0 -41.5 23.5t-22.5 58.5z" />
<glyph unicode="*" horiz-adv-x="966" d="M43 1051q-2 25 6 46t21.5 34.5t28 18.5t26.5 -1l287 -158q2 -27 -8.5 -39t-28.5 -4zM154 602l243 272q27 27 58 -12l-199 -319q-10 -16 -25.5 -14.5t-30 13t-27.5 28t-19 32.5zM424 1372q0 14 11 21.5t28.5 8.5t39 -4t40.5 -14l-31 -337q-2 -16 -13.5 -23.5t-41.5 -1.5z M507 870.5q7 10.5 36 20.5l229 -295q10 -12 5 -26.5t-19.5 -26t-33.5 -20.5t-38 -11l-178 332q-8 16 -1 26.5zM563 940q-35 45 4 66l320 151q14 -10 24.5 -28.5t13.5 -37t-2 -34t-20 -19.5z" />
<glyph unicode="+" d="M86 526q0 57 3 80t24 23h280v278q0 23 22.5 26t80.5 3v-307h307q0 -59 -3 -81t-26 -22h-278v-280q0 -20 -21.5 -23.5t-81.5 -3.5v307h-307z" />
<glyph unicode="," horiz-adv-x="368" d="M92 -184q35 57 47.5 100t14.5 90q-41 25 -41 82q0 37 22.5 60.5t57.5 23.5q41 0 62 -21.5t21 -74.5q0 -49 -16 -101.5t-38.5 -96.5t-46 -71.5t-36.5 -27.5q-16 0 -29.5 9.5t-17.5 27.5z" />
<glyph unicode="-" horiz-adv-x="593" d="M88 526q0 57 3 80t24 23h391q0 -59 -3 -81t-26 -22h-389z" />
<glyph unicode="." horiz-adv-x="368" d="M100 82q0 37 22.5 64.5t63.5 27.5q47 0 68.5 -25.5t21.5 -66.5q0 -39 -24.5 -65.5t-65.5 -26.5q-47 0 -66.5 24.5t-19.5 67.5z" />
<glyph unicode="/" horiz-adv-x="628" d="M20 -41l463 1573q4 12 9.5 19.5t17.5 10.5t34.5 4t63.5 1l-461 -1577q-4 -12 -10 -18.5t-19.5 -9.5t-35.5 -3h-62z" />
<glyph unicode="0" d="M74 606q0 303 88 463t291 160q199 0 278.5 -147.5t79.5 -448.5q0 -319 -83 -484t-290 -165q-201 0 -282.5 152.5t-81.5 469.5zM195 592q0 -272 57 -389t186 -117q141 0 198.5 136t57.5 417q0 246 -49 366.5t-186 120.5q-147 0 -205.5 -140t-58.5 -394z" />
<glyph unicode="1" d="M74 42v42q0 6 41 11t96 7t108.5 3t77.5 1l29 1006q-16 -2 -58 -8t-89 -17q-53 -10 -119 -24q-8 10 -12.5 34.5t-4.5 47.5q0 4 25 12t61.5 17.5t81.5 19.5t86 18.5t72 13.5t41 5t19.5 -3t13.5 -5l-25 -1117h180h43q20 0 37 3q18 2 33 4q0 -47 -2 -80t-16 -33h-717 q-2 14 -2 42z" />
<glyph unicode="2" d="M74 43q0 33 11 51.5t38 61.5q70 113 160 212t171 194t136 190.5t55 199.5q0 37 -8 69t-28.5 53.5t-57.5 33.5t-92 12q-106 0 -191.5 -23.5t-134.5 -56.5q-10 23 -12 46.5t-2 39.5q0 14 25.5 32t72.5 33t112.5 26.5t145.5 11.5q88 0 145.5 -17.5t91 -52.5t46 -85 t12.5 -113q0 -119 -56.5 -222.5t-140.5 -205t-179 -205t-171 -222.5h379q23 0 57.5 1.5t69.5 3.5q39 2 82 4q0 -49 -3 -82t-17 -33h-709q-8 16 -8 43z" />
<glyph unicode="3" d="M100 -115q0 33 5.5 52.5t9.5 35.5q41 -35 92 -52t125 -17q78 0 140.5 31.5t105.5 87t66.5 130t23.5 160.5q0 74 -29 120t-75 70.5t-107.5 34t-124.5 11.5l-2 76q133 74 209.5 159.5t76.5 182.5q0 23 -6 49t-25.5 50t-55 39t-95.5 15q-109 0 -184.5 -21.5t-132.5 -60.5 q-8 18 -10.5 43t-2.5 41t24 36t70 35t110.5 25.5t148.5 10.5q86 0 140 -19.5t87 -53.5t45 -77t12 -88q0 -61 -21.5 -114.5t-55 -99.5t-78.5 -85t-90 -71q57 -6 110 -24.5t93 -54.5t64.5 -92.5t24.5 -136.5q0 -119 -33.5 -214t-94 -162.5t-145.5 -104.5t-187 -37 q-117 0 -172.5 30.5t-55.5 59.5z" />
<glyph unicode="4" d="M78 403q0 31 19.5 90.5t53 135.5t77.5 159.5t95.5 163.5t104.5 149.5t104 117.5q12 10 26.5 14t27.5 4q23 0 38 -5t23 -9l-6 -801h66q31 0 55 2q29 0 55 2q0 -4 2 -10t2 -33t-8 -47.5t-29 -20.5h-143v-274q0 -16 -1 -24.5t-11.5 -11.5t-34 -4t-66.5 -1v315h-419 q-16 16 -23.5 40.5t-7.5 47.5zM180 422h348l19 661q-47 -51 -102.5 -127.5t-107.5 -166t-94.5 -184.5t-62.5 -183z" />
<glyph unicode="5" d="M80 -123q0 29 3 50.5t11 43.5q76 -70 221 -69q100 0 169 37.5t111 103.5t60.5 154t18.5 186t-34 159.5t-86 95.5t-115.5 45t-125.5 11q-82 0 -140 -14t-75 -18l58 567h626q0 -66 -10 -84.5t-53 -18.5h-30h-57q-34 0 -75 1t-84 1q-98 0 -219 2l-39 -354q6 2 40 8.5 t103 6.5q61 2 137 -10.5t143 -53.5t111 -120t44 -210q0 -137 -26 -247.5t-82 -189.5t-146 -122t-220 -43q-123 0 -181 31t-58 51z" />
<glyph unicode="6" d="M78 608q0 229 37 388t101.5 256.5t150.5 140.5t182 43q45 0 85 -3t70.5 -11.5t49 -19.5t18.5 -28q0 -18 -3 -40.5t-7 -39.5q-43 16 -89 25.5t-124 9.5q-72 0 -135.5 -36t-111.5 -111.5t-78.5 -192.5t-37.5 -278q102 186 320 186q68 0 124 -22.5t97 -70.5t64.5 -124 t23.5 -180q0 -254 -95 -386t-294 -132q-115 0 -183.5 45t-105.5 128t-48 197.5t-11 255.5zM186 588q-2 -113 8.5 -205t37 -158.5t74.5 -102.5t124 -36q133 0 204 107.5t71 279.5q0 162 -59.5 240t-170.5 78q-180 0 -289 -203z" />
<glyph unicode="7" d="M106 1229h738q-92 -152 -177 -312.5t-157 -335.5t-129 -363.5t-94 -391.5q-51 0 -83 5t-32 24q39 201 98.5 390t128 354t140 301t137.5 228q-16 0 -64.5 -1t-120 -2t-161.5 -1h-189q-20 0 -27.5 31t-7.5 74z" />
<glyph unicode="8" d="M82 371q0 68 20.5 129t56.5 113.5t82 92t99 66.5q-37 23 -70.5 44.5t-60.5 45.5q-59 43 -86 106.5t-27 131.5q0 88 29 153.5t77 108.5t111.5 63.5t135.5 20.5q61 0 123.5 -12.5t114.5 -48t85 -100t33 -169.5q0 -68 -21.5 -122t-57.5 -97t-80 -76t-87 -59q72 -45 127 -92 q59 -55 96 -125t37 -174q0 -172 -89 -279.5t-267 -107.5q-100 0 -172 28.5t-118 80.5t-68.5 123t-22.5 155zM188 377q0 -127 68 -207t201 -80q123 0 188.5 77t65.5 204q0 94 -37 149t-84 96q-29 27 -65 50.5t-76 46.5q-53 -20 -100.5 -53t-83.5 -76t-56.5 -96.5 t-20.5 -110.5zM207 1106q0 -59 26.5 -109.5t85.5 -91.5q23 -18 60 -39.5t80 -46.5q47 23 91 52.5t76.5 66.5t52 81t19.5 93q0 70 -22.5 114t-57 69.5t-77.5 34.5t-82 9q-49 0 -95.5 -13t-81 -42t-55 -73t-20.5 -105z" />
<glyph unicode="9" d="M74 729q0 262 95 391t294 129q109 0 176.5 -35.5t105 -112.5t51 -195t15.5 -281q-2 -428 -130 -632t-386 -204q-70 0 -121 10.5t-51 38.5q0 18 2 42t6 34q41 -10 78 -14t76 -4q102 0 177 42t126 121.5t77.5 193.5t34.5 259q-49 -90 -124.5 -138t-186.5 -48 q-68 0 -125 24.5t-99 74.5t-66.5 126t-24.5 178zM184 748q0 -162 64.5 -239t171.5 -77q84 0 156.5 52.5t128.5 150.5v4q0 111 -8.5 203t-33 159.5t-71.5 105.5t-127 38q-135 0 -208 -98t-73 -299z" />
<glyph unicode=":" horiz-adv-x="368" d="M100 82q0 37 22.5 64.5t63.5 27.5q47 0 68.5 -25.5t21.5 -66.5q0 -39 -24.5 -65.5t-65.5 -26.5q-47 0 -66.5 24.5t-19.5 67.5zM100 791q0 37 22.5 64.5t63.5 27.5q47 0 68.5 -26t21.5 -66q0 -39 -24.5 -66t-65.5 -27q-47 0 -66.5 26t-19.5 67z" />
<glyph unicode=";" horiz-adv-x="368" d="M86 -184q35 57 47 100t14 90q-41 25 -41 82q0 37 23 60.5t59 23.5q39 0 61.5 -21.5t22.5 -74.5q0 -49 -16 -101.5t-39.5 -96.5t-47.5 -71.5t-36 -27.5q-16 0 -29.5 9.5t-17.5 27.5zM102 791q0 37 22.5 64.5t63.5 27.5q47 0 69 -26t22 -66q0 -39 -25 -66t-66 -27 q-47 0 -66.5 26t-19.5 67z" />
<glyph unicode="&#x3c;" horiz-adv-x="819" d="M90 532q0 43 39 64l549 268q20 -18 29.5 -38.5t9.5 -37.5q0 -27 -21 -34l-458 -226l487 -213q-2 -41 -19.5 -65.5t-33.5 -24.5q-8 0 -19.5 4t-27.5 11l-514 225q-21 28 -21 67z" />
<glyph unicode="=" d="M86 348q0 57 3 80t24 23h690q0 -59 -3 -81t-26 -22h-688zM86 705q0 57 3 79.5t24 22.5h690q0 -59 -3 -80.5t-26 -21.5h-688z" />
<glyph unicode="&#x3e;" horiz-adv-x="819" d="M98 762q0 41 17.5 65.5t34.5 24.5q10 0 49 -14l514 -226q18 -31 18 -67q0 -18 -8 -35.5t-31 -28.5l-549 -270q-20 20 -29.5 40.5t-9.5 35.5q0 29 21 37l459 225z" />
<glyph unicode="?" horiz-adv-x="604" d="M51 1370q0 14 20.5 28.5t54.5 27t77 20.5t90 8q55 0 107.5 -14.5t92 -48t63.5 -90t24 -138.5q0 -90 -28 -159.5t-65.5 -128t-78.5 -107.5t-68 -96q-23 -37 -31 -73t-8 -67q0 -47 9 -78.5t3 -37.5q-10 -14 -43.5 -15.5t-58.5 2.5q-6 14 -12 35q-10 37 -11 90q0 39 9.5 84 t38.5 95q31 55 69.5 105t72.5 101.5t57.5 107.5t23.5 124q0 66 -19.5 104.5t-49.5 59t-64.5 26.5t-63.5 6q-66 0 -116 -18t-80 -43q-15 35 -15 90zM178 82q0 37 22.5 64.5t63.5 27.5q47 0 68.5 -25.5t21.5 -66.5q0 -39 -24.5 -65.5t-65.5 -26.5q-47 0 -66.5 24.5t-19.5 67.5 z" />
<glyph unicode="@" horiz-adv-x="1544" d="M109 541q0 236 52 399.5t147 266t227.5 149.5t291.5 47q154 0 269.5 -38t191.5 -119t114 -210t38 -311q0 -170 -18.5 -289t-47 -198.5t-65.5 -127t-73 -71t-68.5 -29.5t-55.5 -6q-41 0 -73.5 14.5t-55.5 36.5q-25 -16 -81 -34.5t-146 -18.5q-55 0 -103.5 10.5t-83 43 t-54 93t-17.5 162.5q2 98 26.5 162t66.5 100.5t97 51t117 14.5q33 0 64.5 -3t60.5 -13q2 23 2 45v41q0 23 2 43q2 98 -43 128.5t-121 30.5q-70 0 -121 -11t-98 -38q-8 16 -10 34.5t-2 29.5q0 23 18 35q31 20 91.5 34.5t158.5 14.5q117 0 176 -52.5t55 -189.5l-12 -440 q-4 -72 -5 -120t-5 -79q39 -25 86 -25q25 0 62.5 21.5t73.5 86t62.5 182.5t26.5 311q0 160 -26.5 273.5t-87 185t-155.5 104t-233 32.5q-139 0 -251.5 -38.5t-190.5 -129t-120 -239t-42 -365.5q0 -266 41 -424.5t116 -243.5t178 -112t228 -27q176 0 288 34t192 73 q10 -16 20 -40t10 -46q0 -16 -34.5 -37.5t-100 -42t-158 -35t-206.5 -14.5q-94 0 -181.5 9t-164 41t-139 93.5t-107.5 165t-69.5 255t-24.5 364.5zM604 307q-2 -70 9.5 -112.5t34 -65.5t53 -31t67.5 -8q51 0 98 22.5t49 67.5l13 367q-20 4 -48 7t-53 3q-47 0 -87 -11 t-69.5 -39t-47 -77t-19.5 -123z" />
<glyph unicode="A" horiz-adv-x="892" d="M14 2l387 1421q2 18 39 19q31 0 49 -6l388 -1409q1 -5 1 -9q0 -9 -7 -14q-9 -6 -42 -6h-27q-17 0 -40 2l-103 395h-426l-94 -372q-4 -16 -14 -20.5t-41 -4.5h-29q-18 0 -41 4zM260 500h371l-99 379q-16 59 -30.5 119.5t-25.5 113.5t-19 96t-11 72q-4 -29 -11 -72 t-19.5 -96t-26.5 -113.5t-31 -119.5z" />
<glyph unicode="B" horiz-adv-x="802" d="M113 0v1399q0 16 9 25.5t42 9.5h205q57 0 118.5 -12.5t110.5 -46.5t81 -94t32 -159q0 -90 -19.5 -151.5t-50.5 -100.5t-65.5 -57t-65.5 -22q33 -2 75 -14.5t79.5 -45.5t64.5 -90t27 -152q0 -154 -40 -249t-98.5 -148t-128 -72.5t-127.5 -19.5h-249zM225 102h137 q51 0 98.5 18.5t84.5 61.5t59.5 116t22.5 181q0 88 -20.5 138.5t-55.5 76t-84 31.5t-105 6h-137v-629zM225 829h154q88 0 149.5 60.5t61.5 212.5q0 70 -19.5 115t-50.5 71.5t-69.5 35.5t-79.5 9h-146v-504z" />
<glyph unicode="C" horiz-adv-x="722" d="M80 649q0 270 37 430t94 241t128 105.5t138 24.5q100 0 145.5 -36t45.5 -66q0 -20 -6.5 -39t-14.5 -31q-6 6 -20.5 16.5t-34 20.5t-45 18t-53.5 8q-53 0 -106.5 -22.5t-95.5 -93t-68.5 -208.5t-26.5 -370q0 -176 20.5 -283.5t54 -166t77.5 -75t91 -16.5q72 0 129.5 30 t83.5 61q8 -14 14.5 -33t6.5 -39q0 -25 -19.5 -49.5t-53.5 -45t-80 -33.5t-101 -13q-61 0 -122.5 15t-110 83t-78 202t-29.5 365z" />
<glyph unicode="D" horiz-adv-x="847" d="M115 0v1399q0 16 10 25.5t41 9.5h205q98 0 172.5 -34t124 -108.5t75 -197.5t25.5 -301q0 -242 -30.5 -396.5t-85 -242.5t-129 -121t-161.5 -33h-247zM227 109h138q53 0 104 22.5t90 96t62.5 209.5t23.5 364q0 147 -16.5 247.5t-51 163t-87 90t-121.5 27.5h-142v-1220z " />
<glyph unicode="E" horiz-adv-x="690" d="M117 0v1405q0 6 4 14q4 4 8 9.5t14 5.5h490q0 -70 -2 -87.5t-19 -17.5h-385v-493h361q0 -66 -3 -85.5t-22 -19.5h-336v-627h404q0 -72 -3 -88t-22 -16h-489z" />
<glyph unicode="F" horiz-adv-x="669" d="M117 0v1405q0 6 4 14q4 4 8 9.5t14 5.5h490q0 -70 -2 -85.5t-19 -15.5h-385v-495h361q0 -66 -3 -86.5t-22 -20.5h-336v-704q0 -8 -2 -15q-4 -12 -22 -12h-86z" />
<glyph unicode="G" horiz-adv-x="817" d="M74 694q0 236 30.5 384.5t88 231.5t137.5 113.5t176 30.5q94 0 154.5 -28.5t60.5 -65.5q0 -33 -16 -70q-33 25 -76 40.5t-103 15.5q-80 0 -142 -29t-104 -101.5t-64.5 -197.5t-22.5 -318q0 -203 20 -323.5t56 -184t85 -83t107 -19.5q74 0 115.5 28.5t52.5 49.5v551h-201 v69q0 27 31 27h276v-721q-12 -12 -33.5 -31.5t-55.5 -38t-81 -31.5t-108 -13q-90 0 -162 27.5t-121 105t-74.5 217t-25.5 364.5z" />
<glyph unicode="H" d="M113 0v1405q0 10 2 16t12 9.5t33 3.5h65v-600h434v571q0 10 1.5 15t12.5 8.5t33.5 4.5t65.5 1v-1407q0 -10 -2 -15.5t-12 -8.5t-33 -3h-66v727h-434v-700q0 -10 -2 -15.5t-12 -8.5t-33 -3h-65z" />
<glyph unicode="I" horiz-adv-x="337" d="M111 0v1376q0 20 2 32.5t13 18t34.5 6.5t64.5 1v-1407q0 -10 -2 -15.5t-13 -8.5t-34 -3h-65z" />
<glyph unicode="J" horiz-adv-x="618" d="M43 88q0 23 6 40t14 30q29 -31 73 -52.5t100 -21.5q55 0 86.5 22.5t47 62.5t19.5 93t4 115v1001q0 20 2 31.5t12.5 17t33 6.5t65.5 1v-1090q0 -68 -8.5 -133.5t-36 -116.5t-77.5 -82.5t-136 -31.5q-104 0 -154.5 34.5t-50.5 73.5z" />
<glyph unicode="K" horiz-adv-x="804" d="M111 0v1405q0 10 2 16t12 9.5t33 3.5h65v-625l412 618q20 4 37.5 5.5t34.5 1.5q50 0 49 -21q0 -8 -6 -18l-412 -586q129 -84 235.5 -273.5t180.5 -502.5q1 -6 1 -12q0 -11 -6 -16q-9 -7 -38 -7h-36q-19 0 -38 2q-41 141 -79 247.5t-76 186.5t-76.5 136.5t-81.5 99.5 q-23 23 -48.5 38t-52.5 27v-708q0 -10 -2 -15.5t-12 -8.5t-33 -3h-65z" />
<glyph unicode="L" horiz-adv-x="673" d="M113 0v1393q0 14 2 23t12 12.5t33.5 4.5t66.5 1v-1328h406v-79q0 -16 -7.5 -21.5t-21.5 -5.5h-491z" />
<glyph unicode="M" horiz-adv-x="1019" d="M113 0v1405q0 18 7 23.5t19 5.5h76l223 -719q4 -16 17 -58l24 -82q14 -49 31 -106q16 55 31 104q12 41 23 80t16 56l215 696q4 10 8 19.5t20 9.5h86v-1407q0 -10 -2 -15.5t-12 -8.5t-34 -3h-66l4 592l18 577l-153 -512l-119 -348q-6 -18 -23 -18h-53l-115 366 q-4 8 -20.5 64.5t-40 133.5t-49 161t-43.5 145q2 -37 5 -113.5t6 -162.5t6 -164t3 -115l2 -579q0 -10 -2 -15.5t-13 -8.5t-34 -3h-61z" />
<glyph unicode="N" horiz-adv-x="933" d="M113 0v1405q0 29 26 29h80l246 -566q6 -16 22.5 -59t40 -102.5t50 -128t53 -135t49 -125t39.5 -97.5q-2 31 -4 91.5t-3 134t-1 151.5t-1 145.5t-1 115.5v61v485q0 10 2 16t12 9.5t34 3.5h64v-1407q0 -27 -26 -27h-78l-252 575q-6 14 -22.5 54.5t-38 97.5t-48 125 t-52 134.5t-49.5 127t-40 103.5q0 -39 1 -101.5t2 -135.5t2 -148.5t2 -139t1 -108.5v-56v-501q0 -10 -2 -15.5t-12 -8.5t-33 -3h-63z" />
<glyph unicode="O" horiz-adv-x="913" d="M78 727q0 199 24.5 338t73.5 225t123 125t172 39q100 0 170 -37t113 -122t62.5 -223t19.5 -343q0 -207 -22.5 -350t-70 -232.5t-121 -128t-173.5 -38.5q-98 0 -169 34.5t-115 120.5t-65.5 230.5t-21.5 361.5zM203 692q0 -164 13 -276.5t43 -184t78 -103.5t116 -32 q70 0 120 34t81.5 109.5t46 196.5t14.5 295q0 170 -13.5 286t-42 187.5t-76.5 103t-116 31.5t-118 -33.5t-81.5 -110.5t-48 -201t-16.5 -302z" />
<glyph unicode="P" horiz-adv-x="757" d="M113 0v1405q0 29 26 29h213q193 0 276 -104.5t83 -285.5q0 -117 -27 -199.5t-76 -136t-116.5 -78t-147.5 -24.5h-121v-579q0 -10 -2 -15.5t-12 -8.5t-33 -3h-63zM223 713h129q236 0 236 340q0 59 -10.5 110t-37 88t-69.5 58.5t-109 21.5h-139v-618z" />
<glyph unicode="Q" horiz-adv-x="913" d="M78 727q0 199 24.5 338t73.5 225t123 125t172 39q100 0 170 -37t113 -122t62.5 -223t19.5 -343q0 -180 -16.5 -311t-52.5 -220t-90 -138.5t-128 -67.5q16 -98 45 -134t80 -36q76 0 133 35q10 -12 14 -31t4 -31q0 -18 -16 -30.5t-41 -21.5t-55.5 -13t-59.5 -4 q-92 0 -146 59t-85 195q-92 4 -156.5 42.5t-106.5 124.5t-61.5 227.5t-19.5 352.5zM203 692q0 -164 13 -276.5t43 -184t78 -103.5t116 -32q70 0 120 34t81.5 109.5t46 196.5t14.5 295q0 170 -13.5 286t-42 187.5t-76.5 103t-116 31.5t-118 -33.5t-81.5 -110.5t-48 -201 t-16.5 -302z" />
<glyph unicode="R" horiz-adv-x="776" d="M113 0v1405q0 6 4 14q4 4 8 9.5t14 5.5h213q193 0 276 -104.5t83 -285.5q0 -174 -56.5 -272t-154.5 -139q23 -29 53.5 -81t61 -127t56 -173t36.5 -221q2 -18 -7.5 -24.5t-48.5 -8.5h-27q-15 0 -36 2q-14 139 -41 243.5t-56.5 178.5t-57 119t-44.5 67q-10 -2 -22 -2h-23 h-121v-579q0 -10 -2 -15.5t-12 -8.5t-33 -3h-63zM223 713h129q236 0 236 336q0 61 -10.5 112t-37 89t-69.5 59.5t-109 21.5h-139v-618z" />
<glyph unicode="S" horiz-adv-x="755" d="M68 88q0 20 8 42t24 38q33 -31 87.5 -52.5t142.5 -21.5q133 0 189 69.5t56 180.5q0 43 -7 81t-23.5 75t-44 74.5t-68.5 80.5l-221 232q-70 78 -104.5 145.5t-34.5 145.5q0 121 89 198.5t255 77.5q137 0 197.5 -27.5t60.5 -62.5q0 -37 -31 -68q-25 18 -81 37t-138 19 q-106 0 -170 -47.5t-64 -124.5q0 -63 32 -114.5t81 -107.5l244 -251q86 -92 116.5 -172t30.5 -181q0 -80 -19.5 -148.5t-62.5 -118.5t-110.5 -78.5t-163.5 -28.5q-72 0 -122 11t-84 27.5t-49 35t-15 34.5z" />
<glyph unicode="T" horiz-adv-x="751" d="M14 1327v78q0 29 27 29h696v-80q0 -27 -26 -27h-283v-1300q0 -10 -2 -15.5t-13.5 -8.5t-33.5 -3h-64v1327h-301z" />
<glyph unicode="U" horiz-adv-x="937" d="M113 440v965q0 10 2 16t12 9.5t34 3.5h66v-998q0 -72 8.5 -136t34 -111.5t76.5 -75t137 -27.5q70 0 134.5 13.5t95.5 29.5v1278q0 10 2 15t13 8.5t35 3.5h64v-1383q-41 -27 -136 -49t-208 -22q-127 0 -199.5 37.5t-111.5 100t-49 146.5t-10 176z" />
<glyph unicode="V" horiz-adv-x="862" d="M37 1434h90l227 -897q29 -125 49.5 -232.5t36.5 -202.5q16 94 34 202t46 233l207 856q4 20 9 30.5t24 10.5h92l-350 -1446q-18 -2 -38 -4t-50 -2q-27 0 -43.5 33.5t-30.5 86.5q-16 63 -40 152.5t-49.5 193t-53 214t-54.5 215.5q-61 248 -129 518q-3 14 -2 22q0 17 25 17z " />
<glyph unicode="W" horiz-adv-x="1316" d="M11 1422q3 11 26 12h90l188 -899q12 -63 20.5 -115.5t15.5 -100t13.5 -91.5t12.5 -91h8q8 106 22.5 201.5t32.5 196.5l158 784q4 18 9 28.5t24 10.5h80l180 -823q12 -63 21.5 -115.5t15.5 -99t12 -90.5t12 -91h9q10 82 22 185.5t33 210.5l168 858q4 20 9 30.5t24 10.5h92 l-289 -1446q-25 -4 -40 -5t-48 -1q-23 0 -37 28.5t-25 75.5l-153 664q-6 25 -13.5 71.5t-16.5 103t-17 113.5l-15 101l-57 -387l-160 -764q-20 -2 -39.5 -3t-54.5 -1q-20 0 -34.5 32.5t-26.5 89.5q-14 66 -34 156t-41.5 192.5t-45 212t-43.5 214.5q-53 246 -107 514 q-2 9 -2 17q0 5 1 10z" />
<glyph unicode="X" horiz-adv-x="872" d="M20 0l345 743l-289 670q-4 8 -3 12.5t13 6.5t40 2h79l104 -248q23 -53 43 -105l39 -97q18 -46 32.5 -84t22.5 -60q8 23 23.5 59.5t34 82.5t40 98.5t44.5 105.5l98 227q2 8 5 12.5t15.5 6.5t35.5 2h71l-297 -691l332 -720q3 -6 3 -11q0 -12 -20 -12h-116l-140 307 q-23 51 -44 101.5t-39.5 94.5t-33.5 81l-26 61q-18 -47 -58 -140t-87 -196l-140 -295q-8 -14 -28 -14h-99z" />
<glyph unicode="Y" horiz-adv-x="739" d="M25 1432q12 2 38 2h76l99 -293q20 -57 43.5 -130t43 -139.5t34 -118t18.5 -67.5q2 16 16.5 67.5t35 119t44 139t43.5 131.5l90 270q2 8 5 12.5t15.5 6.5t36.5 2h66l-299 -848v-559q0 -10 -1 -15.5t-12 -8.5t-34 -3h-66v582l-305 833q-1 4 -1 7q0 8 14 10z" />
<glyph unicode="Z" horiz-adv-x="804" d="M47 45q0 29 10 55l564 1231h-435q-63 0 -84 -4v78q0 29 29 29h610q12 -16 13 -39q0 -27 -13 -58l-569 -1235h461q33 0 60.5 2t47.5 11v-88q0 -27 -26 -27h-649q-19 14 -19 45z" />
<glyph unicode="[" horiz-adv-x="849" d="M305 -406v2046q0 27 14.5 34t73.5 7h436q0 -68 -6 -85t-41 -17h-364v-1878h409q0 -41 -2 -62.5t-8 -30.5t-15 -11.5t-24 -2.5h-473z" />
<glyph unicode="\" horiz-adv-x="620" d="M23 1532q-6 25 11 30t97 5l467 -1598q6 -23 -13.5 -26.5t-95.5 -3.5z" />
<glyph unicode="]" horiz-adv-x="849" d="M20 -410q0 68 6.5 85.5t41.5 17.5h364v1884h-409q0 39 2 61.5t8 31.5t15 11t24 2h473v-2052q0 -27 -14.5 -34t-75.5 -7h-435z" />
<glyph unicode="^" horiz-adv-x="880" d="M117 494l329 299l291 -267q20 -18 21 -37q0 -23 -16.5 -38t-41.5 -19l-264 215l-221 -190q-18 -14 -27.5 -18.5t-17.5 -4.5q-25 0 -38 18.5t-15 41.5z" />
<glyph unicode="_" horiz-adv-x="784" d="M33 -193q0 59 3 81t25 22h689q0 -57 -3.5 -80t-23.5 -23h-690z" />
<glyph unicode="`" horiz-adv-x="331" d="M0 1411q2 10 6 25.5t11.5 29t16.5 23.5t19 10q2 0 21.5 -15.5t49.5 -39t63.5 -53t64.5 -56t52.5 -47t27.5 -28.5q-6 -18 -15 -33q-6 -12 -13 -22.5t-15 -10.5q-4 0 -46 30.5t-94.5 69.5t-97.5 74t-51 43z" />
<glyph unicode="a" horiz-adv-x="751" d="M74 285q0 109 25.5 174t68.5 101t98.5 47t112.5 11q41 0 87 -5t81 -19v180q0 49 -11.5 81t-33 50.5t-51 24.5t-66.5 6q-98 0 -176 -16.5t-119 -34.5q-16 33 -16 65q0 29 16 41q31 18 120 35.5t202 17.5q123 0 184 -54t61 -193v-123q0 -176 -3 -338t-7 -283 q-35 -23 -102.5 -48t-175.5 -25q-55 0 -108.5 8t-94.5 38.5t-66.5 92.5t-25.5 166zM190 289q0 -74 15.5 -116t42 -63.5t62.5 -26.5t75 -5q49 0 92 14t60 31q2 33 4 78t3 97t2 107.5t1 104.5q-29 10 -67 15t-66 5q-43 0 -84 -7t-72 -31.5t-49.5 -72.5t-18.5 -130z" />
<glyph unicode="b" horiz-adv-x="821" d="M119 41v1409q0 41 22.5 48t89.5 7v-544q47 39 107.5 61t146.5 22q61 0 111.5 -20t85.5 -66.5t53.5 -121t18.5 -185.5q0 -225 -39 -358t-98.5 -203t-129 -90t-133.5 -20q-157 0 -235 61zM231 119q16 -14 49 -25.5t89 -11.5q37 0 83 17.5t86 73.5t66.5 162.5t26.5 285.5 q0 92 -12.5 153.5t-36 98t-60.5 52t-86 15.5q-59 0 -110.5 -18.5t-94.5 -61.5v-741z" />
<glyph unicode="c" horiz-adv-x="677" d="M82 489q0 184 34 294t88 168.5t119.5 75.5t127.5 17q72 0 122 -23.5t50 -57.5q0 -12 -3.5 -31t-11.5 -37q-25 16 -65.5 31.5t-93.5 15.5q-41 0 -86.5 -13.5t-82 -61.5t-60 -139t-23.5 -245q0 -125 15 -203.5t45 -122.5t71 -59.5t92 -15.5q63 0 112.5 19.5t75.5 41.5 q14 -35 15 -65q0 -35 -64.5 -66.5t-169.5 -31.5q-70 0 -126 17t-96 71.5t-62.5 154.5t-22.5 266z" />
<glyph unicode="d" horiz-adv-x="823" d="M84 483q0 147 26.5 254t72.5 174.5t108.5 100t132.5 32.5q104 0 168 -45v451q0 41 23.5 48t91.5 7v-1464q-51 -27 -125 -44t-166 -17q-68 0 -128.5 15t-105.5 67.5t-71.5 151.5t-26.5 269zM205 494q0 -135 16.5 -217t45 -125t69.5 -56.5t90 -13.5q47 0 90 9t78 32l-2 780 q-29 23 -58.5 32t-76.5 9q-51 0 -96.5 -23.5t-80 -76.5t-55 -139t-20.5 -211z" />
<glyph unicode="e" horiz-adv-x="768" d="M78 457q0 197 33.5 313.5t86 178t118 78.5t128.5 17q135 0 196.5 -85t61.5 -238q0 -66 -5 -130.5t-15 -115.5q-66 -12 -137.5 -20.5t-138 -11.5t-124 -4t-89.5 -1q0 -113 17 -181.5t48 -105t75 -49t99 -12.5q70 0 134.5 17.5t111.5 52.5q8 -20 11 -42t3 -38 q0 -18 -22.5 -36.5t-60.5 -32t-89 -22.5t-106 -9q-74 0 -135.5 16t-105.5 67.5t-69.5 145.5t-25.5 248zM195 532h78q48 0 103.5 3.5t110 9.5t97.5 16q4 37 6 71t2 66q-2 123 -34 183.5t-124 60.5q-39 0 -80 -13.5t-74.5 -56.5t-56 -124t-28.5 -216z" />
<glyph unicode="f" horiz-adv-x="507" d="M31 926v54q0 19 3 29.5t9 12.5t18 2h125v129q0 119 32 190.5t80 109.5t107.5 49t114.5 11q92 0 134 -18t42 -45q0 -16 -4 -31.5t-8 -32.5q-39 14 -75 19.5t-77 5.5q-43 0 -83.5 -7t-74.5 -32.5t-54.5 -77t-20.5 -137.5v-133h213q0 -35 -1 -54.5t-4 -29.5t-8 -12t-16 -2 h-184v-899q0 -6 -5 -16.5t-24 -10.5h-84v926h-155z" />
<glyph unicode="g" horiz-adv-x="825" d="M68 -186q0 76 51 143.5t117 114.5q-63 18 -100.5 44.5t-35.5 63.5q0 41 38 90t91 90q-76 47 -102.5 131t-26.5 183q0 96 26 165.5t72 115.5t107.5 67.5t132.5 21.5q16 0 42 -3t50 -9h254q4 -8 8.5 -20.5t4.5 -32.5q0 -45 -47 -45q-23 0 -52.5 3t-58.5 9q53 -35 83 -97.5 t30 -156.5q0 -80 -18.5 -148.5t-58.5 -118.5t-103.5 -80t-151.5 -30q-72 0 -117 15q-33 -27 -59.5 -60.5t-26.5 -56.5q0 -16 22.5 -27.5t62.5 -21.5t94.5 -18.5t117.5 -16.5q57 -8 107.5 -21.5t87 -38t58 -64.5t21.5 -101q0 -59 -23.5 -114.5t-72.5 -98.5t-123.5 -68.5 t-177.5 -25.5q-102 0 -165.5 18t-98.5 49t-47 70t-12 80zM182 -164q0 -29 8.5 -53.5t32 -43t66.5 -28.5t112 -10q70 0 121 16.5t85 44t50.5 60.5t16.5 67q0 84 -59.5 112t-170.5 38q-31 4 -59.5 7t-54.5 7q-55 -39 -101.5 -98.5t-46.5 -118.5zM217 676q0 -55 7 -104.5 t29.5 -86t64.5 -57t110 -20.5q55 0 94 23.5t65.5 64.5t39 97t12.5 122q0 127 -53.5 184t-151.5 57q-90 0 -153.5 -66.5t-63.5 -213.5z" />
<glyph unicode="h" horiz-adv-x="811" d="M111 0v1450q0 41 22.5 48t89.5 7v-549q59 47 128 67.5t132 20.5q74 0 119 -19t71.5 -54t36 -86t9.5 -115v-743q0 -10 -3 -15.5t-14.5 -8.5t-33.5 -3h-64v745q0 43 -6 78t-24.5 60.5t-50 40t-83.5 14.5q-47 0 -107.5 -17.5t-109.5 -64.5v-829q0 -10 -2 -15.5t-12 -8.5 t-33 -3h-65z" />
<glyph unicode="i" horiz-adv-x="350" d="M117 0v969q0 41 24.5 48t91.5 7v-997q0 -10 -2 -15.5t-13 -8.5t-35 -3h-66zM113 1370q0 94 68 94q35 0 49 -22.5t14 -69.5q-4 -96 -70 -96q-31 0 -47 21.5t-14 72.5z" />
<glyph unicode="j" horiz-adv-x="372" d="M-231 -305q0 39 18 63q35 -23 83 -38t114 -15q49 0 77.5 15.5t44 46t20.5 75.5t5 105v1022q0 41 22.5 48t90.5 7v-1100q0 -70 -10.5 -129t-38 -102t-76.5 -67.5t-127 -24.5q-111 0 -167 28.5t-56 65.5zM127 1370q0 94 68 94q35 0 49 -22.5t14 -69.5q-4 -96 -70 -96 q-31 0 -47 21.5t-14 72.5z" />
<glyph unicode="k" horiz-adv-x="802" d="M117 0v1450q0 41 22.5 48t89.5 7v-585q61 61 142.5 92.5t146.5 31.5q100 0 140 -49t40 -131q0 -70 -26.5 -124t-61.5 -94t-70.5 -65.5t-56.5 -37.5q33 -6 73 -26.5t75 -57.5t62.5 -93.5t39.5 -134.5q6 -43 6 -94t-6 -108q-2 -10 -4 -16.5t-14.5 -9.5t-37.5 -3h-71 q4 35 6 66.5t2 60.5q0 96 -18 162q-18 63 -49 102t-64.5 59.5t-69.5 23.5t-63 -3q-16 -4 -36.5 -11t-39.5 -16q-23 -8 -45 -18v-399q0 -10 -1 -15.5t-11 -8.5t-34 -3h-66zM229 514q72 25 135.5 56.5t110.5 70.5t73.5 87t26.5 108q0 104 -104 104q-57 0 -119.5 -29.5 t-122.5 -101.5v-295z" />
<glyph unicode="l" horiz-adv-x="348" d="M117 0v1450q0 41 22.5 48t89.5 7v-1478q0 -10 -2 -15.5t-13 -8.5t-34 -3h-63z" />
<glyph unicode="m" horiz-adv-x="1212" d="M117 0v977q74 33 150.5 50t152.5 17t123 -19t73 -54q55 35 125 54t136 19q76 0 120.5 -19t69.5 -57t32 -93.5t7 -126.5v-721q0 -10 -2 -15.5t-13.5 -8.5t-33.5 -3h-64v754q0 100 -24.5 144t-110.5 44q-45 0 -92 -11t-96 -44v-860q0 -18 -11 -23h-2q-10 -4 -32 -4h-68v801 q-2 37 -7 63.5t-20.5 44t-42 26.5t-69.5 9q-45 0 -90 -10t-99 -35v-872q0 -10 -3 -15.5t-13 -8.5t-34 -3h-62z" />
<glyph unicode="n" horiz-adv-x="821" d="M113 0v973q72 31 158.5 51t172.5 20q82 0 136.5 -16t87 -51t45 -88t12.5 -125v-737q0 -10 -2 -15.5t-13.5 -8.5t-33.5 -3h-66v733q0 55 -7 95t-25.5 66t-51 38t-86.5 12q-45 0 -106.5 -11t-108.5 -36v-870q0 -10 -2 -15.5t-13 -8.5t-34 -3h-63z" />
<glyph unicode="o" horiz-adv-x="784" d="M63 510q0 285 91.5 409.5t251.5 124.5q80 0 139 -24.5t99 -85t59.5 -162.5t19.5 -260q0 -276 -88 -404t-252 -128q-74 0 -133.5 17t-101.5 73.5t-63.5 161t-21.5 278.5zM184 502q0 -133 13.5 -216t40 -129t63.5 -62.5t86 -16.5t88 23.5t67.5 75.5t44 135t15.5 204 q0 133 -13.5 216t-39 130t-62 64.5t-86.5 17.5q-49 0 -89 -20.5t-68.5 -71.5t-44 -136t-15.5 -214z" />
<glyph unicode="p" horiz-adv-x="819" d="M117 -356v1319q133 82 295 81q78 0 140 -20t106 -69.5t68 -133.5t24 -209q0 -209 -34 -333.5t-85 -191.5t-109.5 -87t-107.5 -20q-66 0 -114 22.5t-71 50.5v-448q-14 -4 -29.5 -6t-29.5 -2q-29 0 -41 9t-12 38zM229 176q29 -47 70 -70.5t84 -23.5q31 0 73 15.5t79.5 67.5 t64.5 152.5t27 272.5q0 106 -14.5 175t-42 108.5t-68.5 55t-96 15.5q-100 0 -177 -51v-717z" />
<glyph unicode="q" horiz-adv-x="835" d="M82 453q0 158 30.5 270.5t86 184t131.5 104t166 32.5q72 0 124 -15t99 -48v-1337q0 -33 -11.5 -41.5t-58.5 -8.5q-12 0 -23.5 1.5t-21.5 1.5v491q-74 -109 -229 -108q-47 0 -98.5 15t-94.5 65.5t-71.5 143.5t-28.5 249zM205 451q0 -123 20.5 -196t51 -112t67.5 -50 t70 -11h6q50 0 101 29q54 31 83 100v696q-18 16 -54 26.5t-79 10.5q-127 0 -196.5 -115.5t-69.5 -377.5z" />
<glyph unicode="r" horiz-adv-x="563" d="M113 0v954q66 45 136 67.5t138 22.5q76 0 112 -19t36 -52q0 -14 -4.5 -32.5t-12.5 -35.5q-23 12 -51.5 21.5t-63.5 9.5q-100 0 -176 -57v-852q0 -10 -2 -15.5t-13 -8.5t-35 -3h-64z" />
<glyph unicode="s" horiz-adv-x="753" d="M80 68q0 37 24 69q47 -29 99.5 -41t124.5 -12q102 0 161.5 38t59.5 120q0 59 -26.5 105t-88.5 93l-215 156q-84 57 -109.5 108.5t-25.5 106.5q0 109 89 171t245 62q72 0 122 -11t80.5 -27.5t44 -34t13.5 -29.5q0 -31 -27 -63q-53 35 -105 50t-118 15q-94 0 -154.5 -33.5 t-60.5 -99.5q0 -35 18.5 -67.5t81.5 -75.5l222 -158q72 -59 105.5 -117.5t33.5 -136.5q0 -135 -89 -205.5t-247 -70.5q-119 0 -188.5 25.5t-69.5 62.5z" />
<glyph unicode="t" horiz-adv-x="610" d="M55 924q0 68 4 84t23 16h125v324q0 35 20.5 40t91.5 5v-369h248q0 -68 -4 -84t-20 -16h-224v-629q0 -45 2.5 -84t11.5 -68.5t27.5 -46t53.5 -16.5q43 0 70.5 8t62.5 25q4 -12 6 -27.5t2 -32.5q0 -20 -14.5 -33.5t-38 -22.5t-53 -13t-60.5 -4q-63 0 -100 23.5t-55.5 65.5 t-22.5 100t-4 128v627h-152z" />
<glyph unicode="u" horiz-adv-x="851" d="M119 346v649q0 10 1 16.5t12 9.5t35 3h66v-692q0 -72 8.5 -120t30 -78t60.5 -42t98 -12q35 0 88 9t100 38v868q0 10 2.5 16.5t13.5 9.5t34 3h63v-973q-68 -35 -150.5 -53t-160.5 -18q-90 0 -148.5 20t-92.5 65.5t-47 114t-13 166.5z" />
<glyph unicode="v" horiz-adv-x="729" d="M62 1019q11 3 37 4t69 1l88 -356q23 -92 44.5 -188.5t37.5 -174.5q18 -92 35 -178h2q14 86 33 178q16 78 34.5 175.5t40.5 189.5l80 325q2 10 5 16.5t14.5 9.5t33.5 3h64l-262 -1036q-12 -2 -38 -3t-38 -1q-16 0 -27.5 27.5t-23.5 74.5l-238 901q-3 11 -3 18q0 11 12 14z " />
<glyph unicode="w" horiz-adv-x="1132" d="M49 995q-1 5 -1 9.5t1 7.5q2 6 13.5 9t36.5 3h69l82 -373q20 -98 36.5 -188t30.5 -162q14 -84 29 -160h6q6 31 15.5 83t21.5 113.5t25.5 126t25.5 122.5l72 375q2 16 9 22t30 6h74l88 -407q18 -80 35.5 -158t29.5 -141q14 -74 27 -142h8q4 39 12.5 98.5t20.5 128 t25.5 142.5t27.5 141l70 344q2 10 5 16.5t14 9.5t33 3h62q-63 -291 -114 -518q-23 -98 -43.5 -191.5t-37 -166t-27.5 -116.5l-11 -44q-10 -2 -21 -2q-10 -2 -22 -2h-27q-12 0 -30.5 29.5t-30.5 82.5l-33 142q-20 84 -38.5 167.5t-34 159.5t-28 138.5t-18.5 105.5 q-6 -43 -17 -106.5t-24.5 -139.5t-31 -160t-37.5 -167l-56 -248q-16 -2 -32 -2q-14 -2 -30 -2h-26q-14 0 -26.5 27.5t-22.5 72.5q-12 49 -27.5 113.5t-33 138.5t-35.5 150.5t-35 150.5q-41 172 -84 358z" />
<glyph unicode="x" horiz-adv-x="894" d="M45 0l332 537l-285 467q-4 6 -3 10t12.5 6t37 3t72.5 1l104 -164q18 -33 40 -68.5t41.5 -69.5t34.5 -61.5t24 -44.5q8 14 23.5 43t36 63t42 70.5t41.5 71.5l92 140q4 8 7 12t15.5 6t37.5 2h69l-297 -479l320 -516q7 -12 7 -17.5t-10 -8.5q-11 -3 -40 -3h-80l-107 164 q-25 39 -50 82t-49 84t-42 74.5t-31 54.5q-10 -20 -29.5 -54t-42 -74t-48 -84t-50.5 -85l-92 -139q-4 -8 -10 -13.5t-19.5 -7.5t-37.5 -2h-66z" />
<glyph unicode="y" horiz-adv-x="757" d="M2 -334q0 16 6 35.5t15 30.5q25 -12 60.5 -20.5t63.5 -8.5q57 0 105.5 57.5t81.5 206.5l-266 1022q-4 12 -3 19.5t11 10.5t33.5 4t66.5 1l154 -602q12 -53 22 -105.5t17.5 -97.5t12.5 -75.5t7 -39.5q0 6 5 37t12.5 75t16.5 98.5t21 109.5l138 565q2 12 5 19.5t14 10.5 t34.5 4t66.5 1l-270 -1087q-23 -94 -50.5 -158t-62 -102.5t-75.5 -55t-92 -16.5q-74 0 -112 16t-38 45z" />
<glyph unicode="z" horiz-adv-x="745" d="M59 57q0 23 13 45l481 824h-248q-76 0 -135 -3t-96 -8q-4 20 -4 34v22q0 53 36 53h566q2 -4 6 -10q2 -4 4 -10.5t2 -16.5t-2 -25.5t-12 -33.5l-477 -822h237q98 0 155.5 4.5t92.5 12.5q2 -10 2 -27v-26q0 -35 -8 -52.5t-35 -17.5h-557q-6 6 -10 14q-11 16 -11 43z" />
<glyph unicode="{" horiz-adv-x="583" d="M106 606q0 45 31 62q20 12 39 25.5t33 34t21.5 53t7.5 83.5q0 117 -14.5 219.5t-14.5 200.5q0 68 23.5 113t65.5 73.5t100.5 41t127.5 12.5q23 -33 23 -70t-29 -41q-90 -4 -143 -41t-53 -137q0 -78 12 -175t12 -220q0 -53 -9 -91t-25.5 -64t-38 -42t-48.5 -27 q55 -20 88 -60t33 -132q0 -127 -12 -225.5t-12 -188.5q0 -70 14 -110.5t41 -62t65.5 -30t90.5 -12.5q6 -29 6 -43q0 -59 -43 -59q-154 0 -221.5 62.5t-67.5 211.5q0 106 14.5 204.5t14.5 219.5q0 84 -34 119t-89 45q-9 24 -9 51z" />
<glyph unicode="|" horiz-adv-x="724" d="M305 -410v2044q0 12 3 19.5t13.5 10.5t33 4t63.5 1v-2048q0 -12 -3 -18t-14.5 -9.5t-33.5 -3.5h-62z" />
<glyph unicode="}" horiz-adv-x="583" d="M37 -240q0 37 26 41q92 4 145.5 41t53.5 138q0 78 -12 176t-12 221q0 53 9 90t25.5 62.5t38 42t47.5 28.5q-55 18 -87.5 59t-32.5 134q0 127 12 224t12 189q0 70 -14.5 110t-41 61.5t-66.5 29.5t-91 14q-2 12 -3 22.5t-1 20.5q0 27 10.5 43.5t30.5 16.5 q154 0 221.5 -63.5t67.5 -211.5q0 -53 -4 -103t-10.5 -101.5t-10.5 -105.5t-4 -116q0 -84 34 -118.5t89 -45.5q6 -14 8 -26t2 -23q0 -43 -30 -63q-23 -12 -41.5 -25.5t-33 -34t-21.5 -53.5t-7 -84q0 -117 14.5 -219t14.5 -201q0 -66 -23.5 -111.5t-65.5 -73.5t-100.5 -40 t-128.5 -12q-10 14 -15 32.5t-5 34.5z" />
<glyph unicode="~" horiz-adv-x="819" d="M25 535q12 18 34.5 40.5t54 41t71.5 32t87 13.5q51 0 85 -15.5t63 -35t60.5 -35t78.5 -15.5q51 0 91 23.5t69 58.5q25 23 48.5 4.5t29.5 -57.5q-14 -20 -36 -44t-52.5 -43.5t-70.5 -32.5t-89 -13q-55 0 -92 15t-67 34.5t-58.5 35t-69.5 15.5q-33 0 -60.5 -10t-49 -24.5 t-39 -28t-29.5 -21.5q-18 -8 -36.5 9.5t-22.5 52.5z" />
<glyph unicode="&#xa1;" horiz-adv-x="387" d="M111 948q0 41 24.5 66.5t65.5 25.5q47 0 66.5 -24.5t19.5 -67.5q0 -37 -22.5 -64.5t-63.5 -27.5q-47 0 -68.5 25.5t-21.5 66.5zM123 -406l18 1002q2 35 27 44t84 9l16 -1022q0 -23 -29.5 -28t-115.5 -5z" />
<glyph unicode="&#xa2;" d="M186 461q0 162 25 268.5t65.5 171t93 95t107.5 40.5v217q0 33 24.5 43.5t78.5 10.5v-267q57 -4 102 -24.5t45 -38.5q0 -10 -2 -37t-12 -47q-29 18 -62 31.5t-86 13.5q-47 0 -93 -14.5t-85 -64.5t-62.5 -144t-23.5 -254q0 -131 15.5 -207t45 -114t73.5 -47t100 -9 q53 0 99 19.5t79 43.5q8 -16 11 -37.5t3 -35.5q0 -12 -15.5 -28.5t-42 -30t-61.5 -23.5t-73 -12v-218q0 -31 -24 -40t-77 -9v271q-57 6 -103 26.5t-78 71.5t-49.5 142.5t-17.5 236.5z" />
<glyph unicode="&#xa3;" horiz-adv-x="784" d="M31 569q0 59 3 81t23 22h123q0 162 23.5 267t66.5 167.5t102.5 87.5t131.5 25q41 0 79 -7.5t65.5 -20.5t44 -30.5t16.5 -38.5q0 -33 -21 -71q-37 29 -75 42t-93 13q-49 0 -91 -16.5t-71.5 -62.5t-47 -130t-17.5 -217v-8h301q0 -57 -3 -80t-26 -23h-272q0 -117 3 -231.5 t11 -224.5l375 -9q10 -35 10 -53q0 -35 -38 -43t-74 -8h-381q-10 158 -14.5 296t-4.5 273h-149z" />
<glyph unicode="&#xa5;" d="M77 1425.5q1 4.5 13 6.5t39 2h76l98 -293q20 -59 45 -130t44.5 -134.5t33.5 -110.5t14 -59q0 12 14.5 59t35 110.5t44 135t44.5 131.5l94 270q2 8 5 12.5t15.5 6.5t35.5 2h67l-228 -641h201q0 -53 -8 -74t-39 -21h-189l-36 -108v-127h274q0 -53 -8 -73.5t-39 -20.5h-227 v-342q0 -10 -2 -15.5t-12.5 -8.5t-32.5 -3h-66v369h-279q0 53 8.5 73.5t39.5 20.5h231v119l-43 116h-236q0 53 8.5 74t39.5 21h153l-227 622q-2 6 -1 10.5z" />
<glyph unicode="&#xa6;" horiz-adv-x="462" d="M174 -397v809q0 25 12.5 35t46.5 10q10 0 24.5 -2t29.5 -6v-814q0 -25 -11.5 -31.5t-46.5 -6.5q-10 0 -25.5 1t-29.5 5zM174 682v793q0 25 12.5 36t46.5 11q10 0 24.5 -2t29.5 -7v-798q0 -25 -11.5 -33t-46.5 -8q-10 0 -25.5 2t-29.5 6z" />
<glyph unicode="&#xa7;" horiz-adv-x="751" d="M96 805q0 53 29 110.5t98 98.5l-20 22q-47 51 -66.5 90t-19.5 95q0 100 82 160.5t219 60.5q98 0 155.5 -31t67.5 -57q4 -8 4 -23q0 -39 -24 -69q-39 29 -85.5 45t-111.5 16q-86 0 -134 -34t-48 -87q0 -39 17 -66.5t52 -64.5q20 -23 54 -52.5t71 -61t72 -64.5t59 -62 q47 -51 67.5 -95t20.5 -109q0 -53 -30.5 -109.5t-96.5 -97.5l21 -23q47 -51 66.5 -90t19.5 -94q0 -100 -82 -160.5t-217 -60.5q-98 0 -156.5 29.5t-68.5 58.5q-4 4 -5 11v11q0 39 25 70q39 -31 85 -46t112 -15q88 0 135 33.5t47 86.5q0 39 -17.5 67t-52.5 64 q-23 23 -55.5 51.5t-68.5 61.5l-71 66q-36 33 -61 61q-45 51 -66.5 95.5t-21.5 107.5zM203 799q0 -47 17.5 -81t51.5 -75q29 -35 77 -73t97 -78q47 20 76 63t29 78q0 47 -18.5 82t-53.5 76q-29 33 -77 70.5t-97 78.5q-49 -18 -75.5 -62t-26.5 -79z" />
<glyph unicode="&#xa8;" horiz-adv-x="450" d="M0 1329q0 35 20.5 59.5t59.5 24.5q41 0 61.5 -24.5t20.5 -59.5q0 -37 -22.5 -60.5t-59.5 -23.5q-43 0 -61.5 22.5t-18.5 61.5zM289 1329q0 35 20.5 59.5t59.5 24.5q41 0 61.5 -24.5t20.5 -59.5q0 -37 -22.5 -60.5t-59.5 -23.5q-43 0 -61.5 22.5t-18.5 61.5z" />
<glyph unicode="&#xa9;" horiz-adv-x="950" d="M78 1106q0 236 109.5 343t299.5 107q96 0 169 -22.5t121 -74.5t72.5 -138t24.5 -213q0 -221 -103 -337t-296 -116q-94 0 -168 20.5t-125 72t-77.5 138.5t-26.5 220zM168 1100q0 -102 19.5 -171t58.5 -110t94 -58.5t127 -17.5q70 0 128 21.5t100 68t65.5 115t23.5 164.5 q0 201 -76.5 281t-218.5 80q-72 0 -131 -19.5t-101 -63.5t-65.5 -115t-23.5 -175zM311 1081q0 100 18.5 159.5t46 90.5t61.5 40t67 9q31 0 61.5 -12t30.5 -22q0 -6 -5 -26t-9 -28q-14 8 -29.5 14.5t-38.5 6.5t-45.5 -7.5t-40.5 -32t-29.5 -70.5t-11.5 -124q0 -59 7 -94 t20.5 -52.5t34 -22.5t45.5 -5t48 8.5t40 18.5q4 -10 9 -26.5t5 -22.5q0 -12 -35 -28.5t-76 -16.5t-73.5 7t-55 31.5t-34 72.5t-11.5 132z" />
<glyph unicode="&#xaa;" horiz-adv-x="686" d="M100 838q0 76 19.5 125t52.5 75.5t77 36.5t93 10q39 0 78 -6t65 -16v160q0 43 -13 68.5t-34.5 38.5t-47 17.5t-52.5 4.5q-66 0 -119 -16.5t-88 -32.5q-16 14 -19 42.5t11 43.5q29 27 89 46t159 19q43 0 82 -10t67.5 -32.5t46 -60.5t17.5 -94v-608q-31 -16 -99.5 -36.5 t-152.5 -20.5q-45 0 -87 7t-74 32.5t-51.5 75t-19.5 131.5zM195 831q0 -49 12 -78.5t33.5 -46t50 -22.5t61.5 -6q39 0 77 9t56 22v268q-23 10 -56.5 15t-57.5 5q-37 0 -69 -4t-56.5 -20.5t-37.5 -50.5t-13 -91z" />
<glyph unicode="&#xab;" horiz-adv-x="854" d="M57 522q0 8 13.5 36t35 64.5t48 81t55.5 89.5q68 104 153 231q16 0 27.5 -9t22.5 -20q10 -12 18 -28q0 -10 -11 -35t-30.5 -58.5t-43 -72.5t-48.5 -78q-57 -92 -131 -201q76 -115 135 -209q25 -41 49.5 -79.5t44 -72.5t31.5 -58.5t12 -32.5q-8 -20 -18 -35 q-10 -14 -21.5 -24.5t-25.5 -10.5q-90 131 -158 240q-31 45 -58.5 91t-50 85t-36 67.5t-13.5 38.5zM391 512q0 8 12.5 33.5t34 60.5t48 77t55.5 83q68 98 151 215q16 0 27.5 -9t21.5 -20q10 -12 19 -26q0 -10 -11.5 -34t-30 -54.5t-42 -66.5t-47.5 -73q-57 -84 -129 -186 q74 -100 133 -182q25 -35 48.5 -71t42.5 -65.5t30.5 -51t11.5 -29.5q-8 -20 -16 -35q-8 -12 -20.5 -22.5t-27.5 -10.5q-88 115 -155 213l-58 82q-29 41 -50 76t-34.5 60.5t-13.5 35.5z" />
<glyph unicode="&#xac;" horiz-adv-x="819" d="M68 553q0 23 11 39t30 16h622v-381q-23 -8 -55 -8q-23 0 -38 10.5t-15 28.5v242h-545q-6 16 -8 28.5t-2 24.5z" />
<glyph unicode="&#xad;" horiz-adv-x="593" d="M88 526q0 57 3 80t24 23h391q0 -59 -3 -81t-26 -22h-389z" />
<glyph unicode="&#xae;" horiz-adv-x="950" d="M78 1106q0 236 109.5 343t299.5 107q96 0 169 -22.5t121 -74.5t72.5 -138t24.5 -213q0 -221 -103 -337t-296 -116q-94 0 -168 20.5t-125 72t-77.5 138.5t-26.5 220zM168 1100q0 -102 19.5 -171t58.5 -110t94 -58.5t127 -17.5q70 0 128 21.5t100 68t65.5 115t23.5 164.5 q0 201 -76.5 281t-218.5 80q-72 0 -131 -19.5t-101 -63.5t-65.5 -115t-23.5 -175zM352 844v530q0 2 2 4q6 6 11 6h100q92 0 131 -42t39 -105q0 -113 -84 -152q23 -23 54.5 -76t41.5 -149q0 -6 -3 -11t-19 -7q-4 0 -20.5 1t-24.5 1q-8 55 -20.5 95t-27 66.5t-27.5 42 t-22 21.5h-67v-209q0 -14 -14.5 -15t-49.5 -1zM416 1128h47q104 0 104 109q0 41 -21.5 65.5t-80.5 24.5h-49v-199z" />
<glyph unicode="&#xaf;" horiz-adv-x="524" d="M0 1313q2 25 13.5 40t33.5 15h467q10 -23 10 -51q-4 -57 -45 -57h-473q-4 16 -5 28.5t-1 24.5z" />
<glyph unicode="&#xb0;" horiz-adv-x="759" d="M199 1335q0 98 51 142.5t141 44.5t133 -40t43 -145q0 -92 -49 -139t-141 -47q-41 0 -75 7t-56.5 27.5t-34.5 56.5t-12 93zM283 1331q0 -53 24.5 -76.5t71.5 -23.5q49 0 77.5 24.5t28.5 81.5q0 59 -23.5 82t-70.5 23q-53 0 -80.5 -25t-27.5 -86z" />
<glyph unicode="&#xb1;" horiz-adv-x="886" d="M86 27q0 57 3 79.5t24 22.5h690q0 -59 -3 -80.5t-26 -21.5h-688zM88 573q0 57 3 80t24 23h280v278q0 23 22.5 26t80.5 3v-307h307q0 -59 -3 -81t-26 -22h-278v-280q0 -20 -21.5 -23.5t-81.5 -3.5v307h-307z" />
<glyph unicode="&#xb2;" horiz-adv-x="821" d="M106 633q0 18 4.5 35.5t14.5 29.5q70 76 144.5 139.5t137 124t102.5 119t40 123.5q0 27 -6 51.5t-23.5 43t-48.5 29.5t-80 11q-84 0 -139 -29.5t-96 -60.5q-16 23 -20.5 37t-4.5 33q0 20 25.5 43.5t68.5 44t97.5 34t109.5 13.5q76 0 124 -17.5t75.5 -47t38 -70.5 t10.5 -86q0 -78 -42 -147.5t-104.5 -134t-134 -127t-129.5 -126.5h439q4 -14 6 -25t2 -24q0 -57 -39 -57h-563q-6 12 -7.5 21.5t-1.5 19.5z" />
<glyph unicode="&#xb3;" horiz-adv-x="847" d="M125 672q0 37 31 63q35 -29 85 -44t130 -15q109 0 173 45t64 125q0 57 -39 94t-100 45q-35 6 -81 7t-87 1q-4 6 -8 23.5t-4 27.5q0 16 7 28.5t30 12.5q35 0 69.5 -2t65.5 -6q59 39 82.5 78t23.5 84q0 18 -7 37.5t-25.5 36t-50 28t-81.5 11.5q-74 0 -134 -22.5t-105 -57.5 q-23 23 -24 53.5t16 42.5q33 31 103.5 58.5t180.5 27.5q70 0 117 -15.5t76 -41t42 -58t13 -69.5q0 -125 -115 -215q72 -25 111 -77t39 -122q0 -143 -98.5 -214t-255.5 -71q-88 0 -146.5 18.5t-81.5 39.5q-16 14 -16 43z" />
<glyph unicode="&#xb4;" horiz-adv-x="331" d="M0 1249q43 43 90 87t88 78t68.5 55.5t32.5 21.5q10 0 19 -10.5t16.5 -24.5t11.5 -29.5t6 -25.5q-6 -8 -37 -33t-73 -56.5t-89 -66.5t-88 -61q-10 0 -17.5 10t-13.5 23q-8 14 -14 32z" />
<glyph unicode="&#xb5;" horiz-adv-x="858" d="M119 -391v1376q0 23 12 36t43 13q12 0 27.5 -2t27.5 -6v-760q0 -98 54.5 -139t140.5 -41q63 0 112.5 12.5t88.5 28.5v856q0 25 10 38t45 13q10 0 26.5 -2t28.5 -6v-979q-59 -27 -142 -47t-169 -20q-137 0 -195 73v-407q0 -29 -19.5 -37t-41.5 -8q-14 0 -26.5 2t-22.5 6z " />
<glyph unicode="&#x3bc;" horiz-adv-x="858" d="M119 -391v1376q0 23 12 36t43 13q12 0 27.5 -2t27.5 -6v-760q0 -98 54.5 -139t140.5 -41q63 0 112.5 12.5t88.5 28.5v856q0 25 10 38t45 13q10 0 26.5 -2t28.5 -6v-979q-59 -27 -142 -47t-169 -20q-137 0 -195 73v-407q0 -29 -19.5 -37t-41.5 -8q-14 0 -26.5 2t-22.5 6z " />
<glyph unicode="&#xb6;" horiz-adv-x="1118" d="M88 864q0 297 107.5 442.5t298.5 145.5q80 0 135 -14.5t102 -38.5v-1364q0 -29 -17.5 -35t-39.5 -6q-33 0 -53 8v422q-35 -18 -88.5 -26.5t-98.5 -8.5q-66 0 -128 21.5t-110.5 76t-78 145.5t-29.5 232zM203 874q0 -119 22.5 -194.5t59.5 -118.5t83 -60.5t93 -17.5 q31 -2 78 7.5t79 29.5v805q-16 10 -51 19.5t-88 9.5q-133 0 -204.5 -122t-71.5 -358zM885 2v1364q0 25 12 36t47 11q23 0 53 -10v-1368q0 -23 -11 -31t-46 -8q-10 0 -25.5 1t-29.5 5z" />
<glyph unicode="&#xb7;" horiz-adv-x="425" d="M121 551q0 37 22.5 64.5t63.5 27.5q47 0 68.5 -25.5t21.5 -66.5q0 -39 -24.5 -65.5t-65.5 -26.5q-47 0 -66.5 25.5t-19.5 66.5z" />
<glyph unicode="&#xb8;" horiz-adv-x="256" d="M0 -375q2 16 6 29q4 10 7 21.5t7 17.5q8 8 33 -5.5t58 -13.5q31 0 50 17.5t19 56.5q0 43 -19.5 57.5t-47.5 14.5q-16 0 -30.5 -2t-25.5 -4q-12 -4 -24 -7l39 199h73l-26 -129q2 0 6 2q4 0 10 1t21 1q37 0 68.5 -27.5t31.5 -91.5q0 -84 -45 -120.5t-102 -36.5 q-41 0 -76 10q-19 4 -33 10z" />
<glyph unicode="&#xb9;" horiz-adv-x="835" d="M125 639q0 29 7 44t32 15h231v631l-250 -51q-14 20 -14 53q0 41 39 53q37 10 83 22.5t90 23t80 17.5t48 7q6 0 18.5 -1t20.5 -5v-750h195q6 -29 6 -51q0 -29 -7.5 -42t-29.5 -13h-543q-6 27 -6 47z" />
<glyph unicode="&#xba;" horiz-adv-x="712" d="M86 1020q0 229 78 331.5t205 102.5q63 0 112 -19.5t81 -68.5t48.5 -132t16.5 -212q0 -219 -72 -323.5t-207 -104.5q-61 0 -109.5 17.5t-82 64.5t-52 130t-18.5 214zM184 1012q0 -98 11.5 -161t32 -98.5t51 -49t69.5 -13.5q86 0 134 79t48 255q0 98 -10 161.5t-30.5 100.5 t-50 51.5t-68.5 14.5q-86 0 -136.5 -75t-50.5 -265z" />
<glyph unicode="&#xbb;" horiz-adv-x="849" d="M88 111q0 8 11.5 30.5t29.5 52t43 65.5t49 71q57 82 133 182q2 0 -16.5 26.5t-48 68.5t-63 91.5t-63.5 95.5t-49.5 81.5t-19.5 50.5q0 16 9.5 25.5t21.5 17.5q14 8 33 14q84 -117 151 -215q29 -41 56.5 -83t49 -77t35 -60.5t13.5 -35.5t-13.5 -35.5t-36 -61.5t-51.5 -77 l-57 -82q-68 -98 -155 -213q-18 6 -31 14q-12 8 -21.5 21t-9.5 33zM412 68q0 8 11 32.5t30.5 58.5t44 73.5t49.5 80.5q59 94 137 209q-76 109 -133 201q-25 39 -48.5 78t-42 72.5t-29.5 58t-11 35.5q0 16 10 25t23 18q14 8 34 14q84 -127 152 -231q29 -45 56.5 -89.5t49 -81 t35 -64.5t13.5 -36q0 -10 -13.5 -38.5t-36 -67.5t-51 -85t-57.5 -91q-70 -109 -158 -240q-18 6 -33 14q-12 8 -22 21t-10 33z" />
<glyph unicode="&#xbc;" horiz-adv-x="1796" d="M125 639q0 29 7 44t32 15h231v631l-250 -51q-14 20 -14 53q0 41 39 53q37 10 83 22.5t90 23t80 17.5t48 7q6 0 18.5 -1t20.5 -5v-750h195q6 -29 6 -51q0 -29 -7.5 -42t-29.5 -13h-543q-6 27 -6 47zM1011 207q0 23 15 63q20 63 59 140t88 154t102.5 145.5t102.5 115.5 q23 25 46.5 32t45.5 7q12 0 24.5 -2t22.5 -4v-596h144q10 -25 10 -55q0 -23 -9 -38.5t-26 -15.5h-119v-122q0 -39 -61 -39q-20 0 -45 6v155h-383q-17 19 -17 54zM1122 256h291l4 467q-37 -33 -80 -85t-85 -115.5t-77 -133.5t-53 -133zM485 29l817 1400q8 27 37 27 q41 0 76 -43l-819 -1411q-8 -18 -33 -18q-18 0 -41 11t-37 34z" />
<glyph unicode="&#xbd;" horiz-adv-x="1865" d="M125 639q0 29 7 44t32 15h231v631l-250 -51q-14 20 -14 53q0 41 39 53q37 10 83 22.5t90 23t80 17.5t48 7q6 0 18.5 -1t20.5 -5v-750h195q6 -29 6 -51q0 -29 -7.5 -42t-29.5 -13h-543q-6 27 -6 47zM485 29l818 1401q8 27 36 26q41 0 76 -43l-819 -1411q-8 -18 -33 -18 q-18 0 -41 11t-37 34zM1133 41q0 18 4 35.5t14 29.5q70 76 144.5 139.5t137 124t102.5 119t40 123.5q0 27 -6 51.5t-23.5 43t-48.5 30t-80 11.5q-84 0 -139 -30t-96 -61q-16 23 -20.5 37.5t-4.5 32.5q0 20 25.5 44t68.5 44.5t97.5 33.5t109.5 13q76 0 124 -17.5t76 -47 t38 -70.5t10 -86q0 -78 -42 -147.5t-104.5 -134t-134 -127t-129.5 -126.5h439q4 -14 6 -25t2 -24q0 -57 -39 -57h-563q-6 12 -7 21.5t-1 19.5z" />
<glyph unicode="&#xbe;" horiz-adv-x="1789" d="M125 672q0 37 31 63q35 -29 85 -44t130 -15q109 0 173 45t64 125q0 57 -39 94t-100 45q-35 6 -81 7t-87 1q-4 6 -8 23.5t-4 27.5q0 16 7 28.5t30 12.5q35 0 69.5 -2t65.5 -6q59 39 82.5 78t23.5 84q0 18 -7 37.5t-25.5 36t-50 28t-81.5 11.5q-74 0 -134 -22.5t-105 -57.5 q-23 23 -24 53.5t16 42.5q33 31 103.5 58.5t180.5 27.5q70 0 117 -15.5t76 -41t42 -58t13 -69.5q0 -125 -115 -215q72 -25 111 -77t39 -122q0 -143 -98.5 -214t-255.5 -71q-88 0 -146.5 18.5t-81.5 39.5q-16 14 -16 43zM1005 207q0 23 15 63q20 63 59 140t88 154 t102.5 145.5t102.5 115.5q23 25 46.5 32t45.5 7q12 0 24.5 -2t22.5 -4v-596h144q10 -25 10 -55q0 -23 -9 -38.5t-26 -15.5h-119v-122q0 -39 -61 -39q-20 0 -45 6v155h-383q-17 19 -17 54zM1116 256h291l4 467q-37 -33 -80 -85t-85 -115.5t-77 -133.5t-53 -133zM498 29 l817 1400q8 27 37 27q41 0 76 -43l-819 -1411q-8 -18 -33 -18q-18 0 -41 11t-37 34z" />
<glyph unicode="&#xbf;" horiz-adv-x="618" d="M29 -109q0 88 27.5 159t65.5 129.5t79 107.5t67 96q23 37 30 73t7 66q0 47 -8 79t-2 38q10 14 43 15t59 -3q4 -14 11 -35q4 -16 8 -38.5t4 -51.5q0 -39 -9.5 -84t-37.5 -94q-31 -55 -70 -104t-73.5 -100.5t-58.5 -107.5t-24 -124q0 -66 20.5 -105.5t50.5 -60t64.5 -27 t63.5 -6.5q66 0 115 18.5t82 43.5q6 -16 10 -38t4 -50q0 -14 -20.5 -29.5t-54 -28t-78 -20.5t-89.5 -8q-55 0 -107 14t-92 48t-63.5 90t-23.5 138zM254 946q0 39 24.5 65.5t65.5 26.5q47 0 66.5 -25.5t19.5 -66.5q0 -37 -22.5 -64.5t-63.5 -27.5q-47 0 -68.5 25.5 t-21.5 66.5z" />
<glyph unicode="&#xc0;" horiz-adv-x="892" d="M14 2l387 1421q2 18 39 19q31 0 49 -6l388 -1409q1 -5 1 -9q0 -9 -7 -14q-9 -6 -42 -6h-27q-17 0 -40 2l-103 395h-426l-94 -372q-4 -16 -14 -20.5t-41 -4.5h-29q-18 0 -41 4zM260 500h371l-99 379q-16 59 -30.5 119.5t-25.5 113.5t-19 96t-11 72q-4 -29 -11 -72 t-19.5 -96t-26.5 -113.5t-31 -119.5zM209 1821q2 10 6 25.5t11.5 29t16.5 23.5t19 10q2 0 21.5 -15.5t49.5 -39t63.5 -53t64.5 -56t52.5 -47t27.5 -28.5q-6 -18 -15 -33q-6 -12 -13 -22.5t-15 -10.5q-4 0 -46 30.5t-94.5 69.5t-97.5 74t-51 43z" />
<glyph unicode="&#xc1;" horiz-adv-x="892" d="M14 2l387 1421q2 18 39 19q31 0 49 -6l388 -1409q1 -5 1 -9q0 -9 -7 -14q-9 -6 -42 -6h-27q-17 0 -40 2l-103 395h-426l-94 -372q-4 -16 -14 -20.5t-41 -4.5h-29q-18 0 -41 4zM260 500h371l-99 379q-16 59 -30.5 119.5t-25.5 113.5t-19 96t-11 72q-4 -29 -11 -72 t-19.5 -96t-26.5 -113.5t-31 -119.5zM362 1659q43 43 90 87t88 78t68.5 55.5t32.5 21.5q10 0 19 -10.5t16.5 -24.5t11.5 -29.5t6 -25.5q-6 -8 -37 -33t-73 -56.5t-89 -66.5t-88 -61q-10 0 -17.5 10t-13.5 23q-8 14 -14 32z" />
<glyph unicode="&#xc2;" horiz-adv-x="892" d="M14 2l387 1421q2 18 39 19q31 0 49 -6l388 -1409q1 -5 1 -9q0 -9 -7 -14q-9 -6 -42 -6h-27q-17 0 -40 2l-103 395h-426l-94 -372q-4 -16 -14 -20.5t-41 -4.5h-29q-18 0 -41 4zM260 500h371l-99 379q-16 59 -30.5 119.5t-25.5 113.5t-19 96t-11 72q-4 -29 -11 -72 t-19.5 -96t-26.5 -113.5t-31 -119.5zM195 1637l227 233q12 4 27 4q10 0 20.5 -4t20.5 -14q55 -55 98 -103q37 -41 69 -75.5t32 -40.5q0 -10 -26 -25.5t-58 -15.5q-41 41 -74 78q-29 31 -54.5 59.5t-29.5 38.5q-41 -51 -78 -88q-31 -33 -58.5 -59.5t-37.5 -26.5 q-33 0 -51.5 14.5t-26.5 24.5z" />
<glyph unicode="&#xc3;" horiz-adv-x="892" d="M14 2l387 1421q2 18 39 19q31 0 49 -6l388 -1409q1 -5 1 -9q0 -9 -7 -14q-9 -6 -42 -6h-27q-17 0 -40 2l-103 395h-426l-94 -372q-4 -16 -14 -20.5t-41 -4.5h-29q-18 0 -41 4zM260 500h371l-99 379q-16 59 -30.5 119.5t-25.5 113.5t-19 96t-11 72q-4 -29 -11 -72 t-19.5 -96t-26.5 -113.5t-31 -119.5zM152 1688q49 84 102.5 111.5t106.5 27.5q35 0 56.5 -16.5t39 -35.5t37.5 -35.5t53 -16.5q39 0 63.5 14t39 31.5t22.5 32t19 14.5q10 0 18 -10.5t14 -22.5q8 -14 13 -33q-6 -14 -22.5 -36.5t-41 -44t-59.5 -38t-80 -16.5t-70.5 17.5 t-44 37t-35 37t-43.5 17.5q-29 0 -49 -14.5t-35.5 -32t-25.5 -31.5t-19 -14q-12 0 -22 9t-19 19q-8 13 -18 29z" />
<glyph unicode="&#xc4;" horiz-adv-x="892" d="M14 2l387 1421q2 18 39 19q31 0 49 -6l388 -1409q1 -5 1 -9q0 -9 -7 -14q-9 -6 -42 -6h-27q-17 0 -40 2l-103 395h-426l-94 -372q-4 -16 -14 -20.5t-41 -4.5h-29q-18 0 -41 4zM260 500h371l-99 379q-16 59 -30.5 119.5t-25.5 113.5t-19 96t-11 72q-4 -29 -11 -72 t-19.5 -96t-26.5 -113.5t-31 -119.5zM223 1739q0 35 20.5 59.5t59.5 24.5q41 0 61.5 -24.5t20.5 -59.5q0 -37 -22.5 -60.5t-59.5 -23.5q-43 0 -61.5 22.5t-18.5 61.5zM512 1739q0 35 20.5 59.5t59.5 24.5q41 0 61.5 -24.5t20.5 -59.5q0 -37 -22.5 -60.5t-59.5 -23.5 q-43 0 -61.5 22.5t-18.5 61.5z" />
<glyph unicode="&#xc5;" horiz-adv-x="892" d="M14 2l387 1421q2 18 39 19q31 0 49 -6l388 -1409q1 -5 1 -9q0 -9 -7 -14q-9 -6 -42 -6h-27q-17 0 -40 2l-103 395h-426l-94 -372q-4 -16 -14 -20.5t-41 -4.5h-29q-18 0 -41 4zM260 500h371l-99 379q-16 59 -30.5 119.5t-25.5 113.5t-19 96t-11 72q-4 -29 -11 -72 t-19.5 -96t-26.5 -113.5t-31 -119.5zM260 1770q0 98 51 142t142 44q90 0 133 -40t43 -144q0 -94 -49.5 -140t-141.5 -46q-84 0 -131 39t-47 145zM348 1766q0 -47 22.5 -73t69.5 -26t75 25t28 80q0 57 -23.5 78.5t-66.5 21.5q-51 0 -78 -23.5t-27 -82.5z" />
<glyph unicode="&#xc6;" horiz-adv-x="1314" d="M37 2l672 1409q4 10 14 16.5t22 6.5h515q0 -70 -3.5 -87.5t-19.5 -17.5h-383v-493h358q0 -66 -3 -85.5t-19 -19.5h-336v-627h403q0 -72 -3 -88t-21 -16h-492v395h-401l-178 -372q-6 -14 -16.5 -19.5t-39.5 -5.5h-28q-18 0 -41 4zM389 500h352v800q-16 -47 -37.5 -102 t-45 -111.5t-47 -111.5t-44.5 -105z" />
<glyph unicode="&#xc7;" horiz-adv-x="722" d="M80 649q0 270 37 430t94 244t128 108.5t138 24.5q100 0 145.5 -36t45.5 -66q0 -20 -6.5 -39t-14.5 -31q-6 6 -20.5 16.5t-34 20.5t-45 18.5t-53.5 8.5q-53 0 -106.5 -22.5t-95.5 -96.5t-68.5 -212t-26.5 -370q0 -176 20.5 -283.5t54 -166t77.5 -78t91 -19.5 q72 0 129.5 30t83.5 60q8 -14 14.5 -32.5t6.5 -38.5q0 -23 -16.5 -46.5t-47 -43t-71.5 -33.5t-90 -16l-21 -103q2 0 6 2q4 0 10.5 1t20.5 1q37 0 68.5 -27.5t31.5 -91.5q0 -84 -45 -120.5t-102 -36.5q-41 0 -76 10q-18 4 -33 10q2 16 6 29q4 10 7.5 21.5t7.5 17.5 q8 8 32.5 -5.5t57.5 -13.5q31 0 50 17.5t19 56.5q0 43 -19 57.5t-48 14.5q-16 0 -30.5 -2t-24.5 -4q-12 -4 -25 -7l33 173q-57 4 -110.5 29.5t-94.5 97t-65.5 200.5t-24.5 342z" />
<glyph unicode="&#xc8;" horiz-adv-x="690" d="M117 0v1405q0 6 4 14q4 4 8 9.5t14 5.5h490q0 -70 -2 -87.5t-19 -17.5h-385v-493h361q0 -66 -3 -85.5t-22 -19.5h-336v-627h404q0 -72 -3 -88t-22 -16h-489zM162 1821q2 10 6 25.5t11.5 29t16.5 23.5t19 10q2 0 21.5 -15.5t49.5 -39t63.5 -53t64.5 -56t52.5 -47 t27.5 -28.5q-6 -18 -15 -33q-6 -12 -13 -22.5t-15 -10.5q-4 0 -46 30.5t-94.5 69.5t-97.5 74t-51 43z" />
<glyph unicode="&#xc9;" horiz-adv-x="690" d="M117 0v1405q0 6 4 14q4 4 8 9.5t14 5.5h490q0 -70 -2 -87.5t-19 -17.5h-385v-493h361q0 -66 -3 -85.5t-22 -19.5h-336v-627h404q0 -72 -3 -88t-22 -16h-489zM313 1659q43 43 90 87t88 78t68.5 55.5t32.5 21.5q10 0 19 -10.5t16.5 -24.5t11.5 -29.5t6 -25.5q-6 -8 -37 -33 t-73 -56.5t-89 -66.5t-88 -61q-10 0 -17.5 10t-13.5 23q-8 14 -14 32z" />
<glyph unicode="&#xca;" horiz-adv-x="690" d="M117 0v1405q0 6 4 14q4 4 8 9.5t14 5.5h490q0 -70 -2 -87.5t-19 -17.5h-385v-493h361q0 -66 -3 -85.5t-22 -19.5h-336v-627h404q0 -72 -3 -88t-22 -16h-489zM145 1637l227 233q12 4 27 4q10 0 20.5 -4t20.5 -14q55 -55 98 -103q37 -41 69 -75.5t32 -40.5q0 -10 -26 -25.5 t-58 -15.5q-41 41 -74 78q-29 31 -54.5 59.5t-29.5 38.5q-41 -51 -78 -88q-31 -33 -58.5 -59.5t-37.5 -26.5q-33 0 -51.5 14.5t-26.5 24.5z" />
<glyph unicode="&#xcb;" horiz-adv-x="690" d="M117 0v1405q0 6 4 14q4 4 8 9.5t14 5.5h490q0 -70 -2 -87.5t-19 -17.5h-385v-493h361q0 -66 -3 -85.5t-22 -19.5h-336v-627h404q0 -72 -3 -88t-22 -16h-489zM174 1739q0 35 20.5 59.5t59.5 24.5q41 0 61.5 -24.5t20.5 -59.5q0 -37 -22.5 -60.5t-59.5 -23.5 q-43 0 -61.5 22.5t-18.5 61.5zM463 1739q0 35 20.5 59.5t59.5 24.5q41 0 61.5 -24.5t20.5 -59.5q0 -37 -22.5 -60.5t-59.5 -23.5q-43 0 -61.5 22.5t-18.5 61.5z" />
<glyph unicode="&#xcc;" horiz-adv-x="337" d="M111 0v1376q0 20 2 32.5t13 18t34.5 6.5t64.5 1v-1407q0 -10 -2 -15.5t-13 -8.5t-34 -3h-65zM-66 1821q2 10 6 25.5t11.5 29t16.5 23.5t19 10q2 0 21.5 -15.5t49.5 -39t63.5 -53t64.5 -56t52.5 -47t27.5 -28.5q-6 -18 -15 -33q-6 -12 -13 -22.5t-15 -10.5q-4 0 -46 30.5 t-94.5 69.5t-97.5 74t-51 43z" />
<glyph unicode="&#xcd;" horiz-adv-x="337" d="M111 0v1376q0 20 2 32.5t13 18t34.5 6.5t64.5 1v-1407q0 -10 -2 -15.5t-13 -8.5t-34 -3h-65zM84 1659q43 43 90 87t88 78t68.5 55.5t32.5 21.5q10 0 19 -10.5t16.5 -24.5t11.5 -29.5t6 -25.5q-6 -8 -37 -33t-73 -56.5t-89 -66.5t-88 -61q-10 0 -17.5 10t-13.5 23 q-8 14 -14 32z" />
<glyph unicode="&#xce;" horiz-adv-x="337" d="M111 0v1376q0 20 2 32.5t13 18t34.5 6.5t64.5 1v-1407q0 -10 -2 -15.5t-13 -8.5t-34 -3h-65zM-80 1637l227 233q12 4 27 4q10 0 20.5 -4t20.5 -14q55 -55 98 -103q37 -41 69 -75.5t32 -40.5q0 -10 -26 -25.5t-58 -15.5q-41 41 -74 78q-29 31 -54.5 59.5t-29.5 38.5 q-41 -51 -78 -88q-31 -33 -58.5 -59.5t-37.5 -26.5q-33 0 -51.5 14.5t-26.5 24.5z" />
<glyph unicode="&#xcf;" horiz-adv-x="337" d="M111 0v1376q0 20 2 32.5t13 18t34.5 6.5t64.5 1v-1407q0 -10 -2 -15.5t-13 -8.5t-34 -3h-65zM-51 1739q0 35 20.5 59.5t59.5 24.5q41 0 61.5 -24.5t20.5 -59.5q0 -37 -22.5 -60.5t-59.5 -23.5q-43 0 -61.5 22.5t-18.5 61.5zM238 1739q0 35 20.5 59.5t59.5 24.5 q41 0 61.5 -24.5t20.5 -59.5q0 -37 -22.5 -60.5t-59.5 -23.5q-43 0 -61.5 22.5t-18.5 61.5z" />
<glyph unicode="&#xd0;" horiz-adv-x="847" d="M25 705q0 57 3 78.5t23 21.5h64v594q0 16 10 25.5t41 9.5h205q98 0 172.5 -33t124 -108.5t75 -196.5t25.5 -295q0 -246 -30.5 -401.5t-85 -244.5t-129 -122t-161.5 -33h-247v705h-90zM227 109h138q53 0 104 22.5t90 96t62.5 209.5t23.5 364q0 147 -16.5 247.5t-51 163 t-87 90t-121.5 27.5h-142v-524h213q0 -57 -3 -78.5t-25 -21.5h-185v-596z" />
<glyph unicode="&#xd1;" horiz-adv-x="933" d="M113 0v1405q0 29 26 29h80l246 -566q6 -16 22.5 -59t40 -102.5t50 -128t53 -135t49 -125t39.5 -97.5q-2 31 -4 91.5t-3 134t-1 151.5t-1 145.5t-1 115.5v61v485q0 10 2 16t12 9.5t34 3.5h64v-1407q0 -27 -26 -27h-78l-252 575q-6 14 -22.5 54.5t-38 97.5t-48 125 t-52 134.5t-49.5 127t-40 103.5q0 -39 1 -101.5t2 -135.5t2 -148.5t2 -139t1 -108.5v-56v-501q0 -10 -2 -15.5t-12 -8.5t-33 -3h-63zM190 1688q49 84 102.5 111.5t106.5 27.5q35 0 56.5 -16.5t39 -35.5t37.5 -35.5t53 -16.5q39 0 63.5 14t39 31.5t22.5 32t19 14.5 q10 0 18 -10.5t14 -22.5q8 -14 13 -33q-6 -14 -22.5 -36.5t-41 -44t-59.5 -38t-80 -16.5t-70.5 17.5t-44 37t-35 37t-43.5 17.5q-29 0 -49 -14.5t-35.5 -32t-25.5 -31.5t-19 -14q-12 0 -22 9t-19 19q-8 13 -18 29z" />
<glyph unicode="&#xd2;" horiz-adv-x="913" d="M78 727q0 199 24.5 338t73.5 225t123 125t172 39q100 0 170 -37t113 -122t62.5 -223t19.5 -343q0 -207 -22.5 -350t-70 -232.5t-121 -128t-173.5 -38.5q-98 0 -169 34.5t-115 120.5t-65.5 230.5t-21.5 361.5zM203 692q0 -164 13 -276.5t43 -184t78 -103.5t116 -32 q70 0 120 34t81.5 109.5t46 196.5t14.5 295q0 170 -13.5 286t-42 187.5t-76.5 103t-116 31.5t-118 -33.5t-81.5 -110.5t-48 -201t-16.5 -302zM240 1821q2 10 6 25.5t11.5 29t16.5 23.5t19 10q2 0 21.5 -15.5t49.5 -39t63.5 -53t64.5 -56t52.5 -47t27.5 -28.5q-6 -18 -15 -33 q-6 -12 -13 -22.5t-15 -10.5q-4 0 -46 30.5t-94.5 69.5t-97.5 74t-51 43z" />
<glyph unicode="&#xd3;" horiz-adv-x="913" d="M78 727q0 199 24.5 338t73.5 225t123 125t172 39q100 0 170 -37t113 -122t62.5 -223t19.5 -343q0 -207 -22.5 -350t-70 -232.5t-121 -128t-173.5 -38.5q-98 0 -169 34.5t-115 120.5t-65.5 230.5t-21.5 361.5zM203 692q0 -164 13 -276.5t43 -184t78 -103.5t116 -32 q70 0 120 34t81.5 109.5t46 196.5t14.5 295q0 170 -13.5 286t-42 187.5t-76.5 103t-116 31.5t-118 -33.5t-81.5 -110.5t-48 -201t-16.5 -302zM391 1659q43 43 90 87t88 78t68.5 55.5t32.5 21.5q10 0 19 -10.5t16.5 -24.5t11.5 -29.5t6 -25.5q-6 -8 -37 -33t-73 -56.5 t-89 -66.5t-88 -61q-10 0 -17.5 10t-13.5 23q-8 14 -14 32z" />
<glyph unicode="&#xd4;" horiz-adv-x="913" d="M78 727q0 199 24.5 338t73.5 225t123 125t172 39q100 0 170 -37t113 -122t62.5 -223t19.5 -343q0 -207 -22.5 -350t-70 -232.5t-121 -128t-173.5 -38.5q-98 0 -169 34.5t-115 120.5t-65.5 230.5t-21.5 361.5zM203 692q0 -164 13 -276.5t43 -184t78 -103.5t116 -32 q70 0 120 34t81.5 109.5t46 196.5t14.5 295q0 170 -13.5 286t-42 187.5t-76.5 103t-116 31.5t-118 -33.5t-81.5 -110.5t-48 -201t-16.5 -302zM223 1637l227 233q12 4 27 4q10 0 20.5 -4t20.5 -14q55 -55 98 -103q37 -41 69 -75.5t32 -40.5q0 -10 -26 -25.5t-58 -15.5 q-41 41 -74 78q-29 31 -54.5 59.5t-29.5 38.5q-41 -51 -78 -88q-31 -33 -58.5 -59.5t-37.5 -26.5q-33 0 -51.5 14.5t-26.5 24.5z" />
<glyph unicode="&#xd5;" horiz-adv-x="913" d="M78 727q0 199 24.5 338t73.5 225t123 125t172 39q100 0 170 -37t113 -122t62.5 -223t19.5 -343q0 -207 -22.5 -350t-70 -232.5t-121 -128t-173.5 -38.5q-98 0 -169 34.5t-115 120.5t-65.5 230.5t-21.5 361.5zM203 692q0 -164 13 -276.5t43 -184t78 -103.5t116 -32 q70 0 120 34t81.5 109.5t46 196.5t14.5 295q0 170 -13.5 286t-42 187.5t-76.5 103t-116 31.5t-118 -33.5t-81.5 -110.5t-48 -201t-16.5 -302zM180 1688q49 84 102.5 111.5t106.5 27.5q35 0 56.5 -16.5t39 -35.5t37.5 -35.5t53 -16.5q39 0 63.5 14t39 31.5t22.5 32t19 14.5 q10 0 18 -10.5t14 -22.5q8 -14 13 -33q-6 -14 -22.5 -36.5t-41 -44t-59.5 -38t-80 -16.5t-70.5 17.5t-44 37t-35 37t-43.5 17.5q-29 0 -49 -14.5t-35.5 -32t-25.5 -31.5t-19 -14q-12 0 -22 9t-19 19q-8 13 -18 29z" />
<glyph unicode="&#xd6;" horiz-adv-x="913" d="M78 727q0 199 24.5 338t73.5 225t123 125t172 39q100 0 170 -37t113 -122t62.5 -223t19.5 -343q0 -207 -22.5 -350t-70 -232.5t-121 -128t-173.5 -38.5q-98 0 -169 34.5t-115 120.5t-65.5 230.5t-21.5 361.5zM203 692q0 -164 13 -276.5t43 -184t78 -103.5t116 -32 q70 0 120 34t81.5 109.5t46 196.5t14.5 295q0 170 -13.5 286t-42 187.5t-76.5 103t-116 31.5t-118 -33.5t-81.5 -110.5t-48 -201t-16.5 -302zM252 1739q0 35 20.5 59.5t59.5 24.5q41 0 61.5 -24.5t20.5 -59.5q0 -37 -22.5 -60.5t-59.5 -23.5q-43 0 -61.5 22.5t-18.5 61.5z M541 1739q0 35 20.5 59.5t59.5 24.5q41 0 61.5 -24.5t20.5 -59.5q0 -37 -22.5 -60.5t-59.5 -23.5q-43 0 -61.5 22.5t-18.5 61.5z" />
<glyph unicode="&#xd7;" d="M178 795q41 41 59.5 54t32.5 -1l170 -193l172 193q16 14 34 1t59 -54l-195 -220l192 -215q-41 -41 -58 -55t-34 2l-170 191l-168 -191q-16 -16 -33.5 -2t-58.5 55l191 215z" />
<glyph unicode="&#xd8;" horiz-adv-x="950" d="M96 727q0 199 23.5 338t72 225t122 125t171.5 39q78 0 136.5 -21.5t101.5 -68.5l43 109q18 -2 35 -7q14 -4 25.5 -11t15.5 -19q0 -4 -6.5 -22.5t-14.5 -44.5t-18 -54.5t-19 -50.5q35 -86 52.5 -217.5t17.5 -317.5q0 -207 -22.5 -350t-69.5 -232.5t-120 -128t-173 -38.5 q-78 0 -138.5 21.5t-105.5 70.5l-43 -105q-12 -2 -40.5 6.5t-32.5 30.5q0 2 7 19.5t16 42t20 50.5l18 46q-39 86 -56.5 224t-17.5 341zM221 692q0 -147 10.5 -253.5t32.5 -178.5l379 1008q-29 39 -67.5 55t-88.5 16q-68 0 -118 -33.5t-82.5 -110.5t-49 -201t-16.5 -302z M309 166q53 -72 156 -72q68 0 118 29t83.5 100.5t50 195.5t16.5 312q0 152 -10 260.5t-33 179.5q-23 -63 -56.5 -150t-70.5 -185.5t-74.5 -201t-72.5 -192.5t-63 -162.5t-44 -113.5z" />
<glyph unicode="&#xd9;" horiz-adv-x="937" d="M113 440v965q0 10 2 16t12 9.5t34 3.5h66v-998q0 -72 8.5 -136t34 -111.5t76.5 -75t137 -27.5q70 0 134.5 13.5t95.5 29.5v1278q0 10 2 15t13 8.5t35 3.5h64v-1383q-41 -27 -136 -49t-208 -22q-127 0 -199.5 37.5t-111.5 100t-49 146.5t-10 176zM246 1821q2 10 6 25.5 t11.5 29t16.5 23.5t19 10q2 0 21.5 -15.5t49.5 -39t63.5 -53t64.5 -56t52.5 -47t27.5 -28.5q-6 -18 -15 -33q-6 -12 -13 -22.5t-15 -10.5q-4 0 -46 30.5t-94.5 69.5t-97.5 74t-51 43z" />
<glyph unicode="&#xda;" horiz-adv-x="937" d="M113 440v965q0 10 2 16t12 9.5t34 3.5h66v-998q0 -72 8.5 -136t34 -111.5t76.5 -75t137 -27.5q70 0 134.5 13.5t95.5 29.5v1278q0 10 2 15t13 8.5t35 3.5h64v-1383q-41 -27 -136 -49t-208 -22q-127 0 -199.5 37.5t-111.5 100t-49 146.5t-10 176zM397 1659q43 43 90 87 t88 78t68.5 55.5t32.5 21.5q10 0 19 -10.5t16.5 -24.5t11.5 -29.5t6 -25.5q-6 -8 -37 -33t-73 -56.5t-89 -66.5t-88 -61q-10 0 -17.5 10t-13.5 23q-8 14 -14 32z" />
<glyph unicode="&#xdb;" horiz-adv-x="937" d="M113 440v965q0 10 2 16t12 9.5t34 3.5h66v-998q0 -72 8.5 -136t34 -111.5t76.5 -75t137 -27.5q70 0 134.5 13.5t95.5 29.5v1278q0 10 2 15t13 8.5t35 3.5h64v-1383q-41 -27 -136 -49t-208 -22q-127 0 -199.5 37.5t-111.5 100t-49 146.5t-10 176zM229 1637l227 233 q12 4 27 4q10 0 20.5 -4t20.5 -14q55 -55 98 -103q37 -41 69 -75.5t32 -40.5q0 -10 -26 -25.5t-58 -15.5q-41 41 -74 78q-29 31 -54.5 59.5t-29.5 38.5q-41 -51 -78 -88q-31 -33 -58.5 -59.5t-37.5 -26.5q-33 0 -51.5 14.5t-26.5 24.5z" />
<glyph unicode="&#xdc;" horiz-adv-x="937" d="M113 440v965q0 10 2 16t12 9.5t34 3.5h66v-998q0 -72 8.5 -136t34 -111.5t76.5 -75t137 -27.5q70 0 134.5 13.5t95.5 29.5v1278q0 10 2 15t13 8.5t35 3.5h64v-1383q-41 -27 -136 -49t-208 -22q-127 0 -199.5 37.5t-111.5 100t-49 146.5t-10 176zM258 1739q0 35 20.5 59.5 t59.5 24.5q41 0 61.5 -24.5t20.5 -59.5q0 -37 -22.5 -60.5t-59.5 -23.5q-43 0 -61.5 22.5t-18.5 61.5zM547 1739q0 35 20.5 59.5t59.5 24.5q41 0 61.5 -24.5t20.5 -59.5q0 -37 -22.5 -60.5t-59.5 -23.5q-43 0 -61.5 22.5t-18.5 61.5z" />
<glyph unicode="&#xdd;" horiz-adv-x="739" d="M25 1432q12 2 38 2h76l99 -293q20 -57 43.5 -130t43 -139.5t34 -118t18.5 -67.5q2 16 16.5 67.5t35 119t44 139t43.5 131.5l90 270q2 8 5 12.5t15.5 6.5t36.5 2h66l-299 -848v-559q0 -10 -1 -15.5t-12 -8.5t-34 -3h-66v582l-305 833q-1 4 -1 7q0 8 14 10zM293 1659 q43 43 90 87t88 78t68.5 55.5t32.5 21.5q10 0 19 -10.5t16.5 -24.5t11.5 -29.5t6 -25.5q-6 -8 -37 -33t-73 -56.5t-89 -66.5t-88 -61q-10 0 -17.5 10t-13.5 23q-8 14 -14 32z" />
<glyph unicode="&#xde;" horiz-adv-x="757" d="M113 0v1403q0 23 16 27t59 4h35v-265h129q96 0 165 -27.5t112 -77.5t62.5 -123t19.5 -163q0 -117 -27 -198.5t-76 -135t-116.5 -78t-147.5 -24.5h-121v-315q0 -10 -2 -15.5t-13 -8.5t-34 -3h-61zM223 451h24q19 0 41.5 -1t41.5 -1h22q236 0 236 339q0 59 -10.5 110.5 t-37 88.5t-69.5 58.5t-109 21.5t-98.5 -1t-40.5 -1v-614z" />
<glyph unicode="&#xdf;" horiz-adv-x="962" d="M100 2q4 12 9 29q4 14 7 33.5t3 46.5l-2 1013q0 172 88 245t233 73q111 0 186.5 -28t123 -71t68 -94t20.5 -98t-19.5 -81t-48.5 -59.5t-63.5 -47t-63.5 -44t-48.5 -48t-19.5 -60.5q0 -37 27 -69.5t67 -66.5t87 -71t87 -84t66.5 -106.5t26.5 -134.5q0 -143 -83 -220 t-224 -77q-119 0 -180.5 31.5t-61.5 56.5q0 29 12.5 49t18.5 28q29 -25 74 -44t116 -19q88 0 147.5 46t59.5 144q0 61 -26.5 110.5t-66.5 91.5t-87 79t-87 76t-66.5 81t-26.5 93q0 70 41 113t91 76.5t91 68.5t41 88q0 31 -15.5 64.5t-48 60.5t-84 44t-123.5 17 q-115 0 -166 -63.5t-51 -214.5l2 -1002q0 -39 -12 -57t-53 -18q-33 0 -49 10q-9 4 -17 10z" />
<glyph unicode="&#xe0;" horiz-adv-x="751" d="M74 285q0 109 25.5 174t68.5 101t98.5 47t112.5 11q41 0 87 -5t81 -19v180q0 49 -11.5 81t-33 50.5t-51 24.5t-66.5 6q-98 0 -176 -16.5t-119 -34.5q-16 33 -16 65q0 29 16 41q31 18 120 35.5t202 17.5q123 0 184 -54t61 -193v-123q0 -176 -3 -338t-7 -283 q-35 -23 -102.5 -48t-175.5 -25q-55 0 -108.5 8t-94.5 38.5t-66.5 92.5t-25.5 166zM190 289q0 -74 15.5 -116t42 -63.5t62.5 -26.5t75 -5q49 0 92 14t60 31q2 33 4 78t3 97t2 107.5t1 104.5q-29 10 -67 15t-66 5q-43 0 -84 -7t-72 -31.5t-49.5 -72.5t-18.5 -130zM143 1411 q2 10 6 25.5t11.5 29t16.5 23.5t19 10q2 0 21.5 -15.5t49.5 -39t63.5 -53t64.5 -56t52.5 -47t27.5 -28.5q-6 -18 -15 -33q-6 -12 -13 -22.5t-15 -10.5q-4 0 -46 30.5t-94.5 69.5t-97.5 74t-51 43z" />
<glyph unicode="&#xe1;" horiz-adv-x="751" d="M74 285q0 109 25.5 174t68.5 101t98.5 47t112.5 11q41 0 87 -5t81 -19v180q0 49 -11.5 81t-33 50.5t-51 24.5t-66.5 6q-98 0 -176 -16.5t-119 -34.5q-16 33 -16 65q0 29 16 41q31 18 120 35.5t202 17.5q123 0 184 -54t61 -193v-123q0 -176 -3 -338t-7 -283 q-35 -23 -102.5 -48t-175.5 -25q-55 0 -108.5 8t-94.5 38.5t-66.5 92.5t-25.5 166zM190 289q0 -74 15.5 -116t42 -63.5t62.5 -26.5t75 -5q49 0 92 14t60 31q2 33 4 78t3 97t2 107.5t1 104.5q-29 10 -67 15t-66 5q-43 0 -84 -7t-72 -31.5t-49.5 -72.5t-18.5 -130zM297 1249 q43 43 90 87t88 78t68.5 55.5t32.5 21.5q10 0 19 -10.5t16.5 -24.5t11.5 -29.5t6 -25.5q-6 -8 -37 -33t-73 -56.5t-89 -66.5t-88 -61q-10 0 -17.5 10t-13.5 23q-8 14 -14 32z" />
<glyph unicode="&#xe2;" horiz-adv-x="751" d="M74 285q0 109 25.5 174t68.5 101t98.5 47t112.5 11q41 0 87 -5t81 -19v180q0 49 -11.5 81t-33 50.5t-51 24.5t-66.5 6q-98 0 -176 -16.5t-119 -34.5q-16 33 -16 65q0 29 16 41q31 18 120 35.5t202 17.5q123 0 184 -54t61 -193v-123q0 -176 -3 -338t-7 -283 q-35 -23 -102.5 -48t-175.5 -25q-55 0 -108.5 8t-94.5 38.5t-66.5 92.5t-25.5 166zM190 289q0 -74 15.5 -116t42 -63.5t62.5 -26.5t75 -5q49 0 92 14t60 31q2 33 4 78t3 97t2 107.5t1 104.5q-29 10 -67 15t-66 5q-43 0 -84 -7t-72 -31.5t-49.5 -72.5t-18.5 -130zM129 1227 l227 233q12 4 27 4q10 0 20.5 -4t20.5 -14q55 -55 98 -103q37 -41 69 -75.5t32 -40.5q0 -10 -26 -25.5t-58 -15.5q-41 41 -74 78q-29 31 -54.5 59.5t-29.5 38.5q-41 -51 -78 -88q-31 -33 -58.5 -59.5t-37.5 -26.5q-33 0 -51.5 14.5t-26.5 24.5z" />
<glyph unicode="&#xe3;" horiz-adv-x="751" d="M74 285q0 109 25.5 174t68.5 101t98.5 47t112.5 11q41 0 87 -5t81 -19v180q0 49 -11.5 81t-33 50.5t-51 24.5t-66.5 6q-98 0 -176 -16.5t-119 -34.5q-16 33 -16 65q0 29 16 41q31 18 120 35.5t202 17.5q123 0 184 -54t61 -193v-123q0 -176 -3 -338t-7 -283 q-35 -23 -102.5 -48t-175.5 -25q-55 0 -108.5 8t-94.5 38.5t-66.5 92.5t-25.5 166zM190 289q0 -74 15.5 -116t42 -63.5t62.5 -26.5t75 -5q49 0 92 14t60 31q2 33 4 78t3 97t2 107.5t1 104.5q-29 10 -67 15t-66 5q-43 0 -84 -7t-72 -31.5t-49.5 -72.5t-18.5 -130zM86 1278 q49 84 102.5 111.5t106.5 27.5q35 0 56.5 -16.5t39 -35.5t37.5 -35.5t53 -16.5q39 0 63.5 14t39 31.5t22.5 32t19 14.5q10 0 18 -10.5t14 -22.5q8 -14 13 -33q-6 -14 -22.5 -36.5t-41 -44t-59.5 -38t-80 -16.5t-70.5 17.5t-44 37t-35 37t-43.5 17.5q-29 0 -49 -14.5 t-35.5 -32t-25.5 -31.5t-19 -14q-12 0 -22 9t-19 19q-8 13 -18 29z" />
<glyph unicode="&#xe4;" horiz-adv-x="751" d="M74 285q0 109 25.5 174t68.5 101t98.5 47t112.5 11q41 0 87 -5t81 -19v180q0 49 -11.5 81t-33 50.5t-51 24.5t-66.5 6q-98 0 -176 -16.5t-119 -34.5q-16 33 -16 65q0 29 16 41q31 18 120 35.5t202 17.5q123 0 184 -54t61 -193v-123q0 -176 -3 -338t-7 -283 q-35 -23 -102.5 -48t-175.5 -25q-55 0 -108.5 8t-94.5 38.5t-66.5 92.5t-25.5 166zM190 289q0 -74 15.5 -116t42 -63.5t62.5 -26.5t75 -5q49 0 92 14t60 31q2 33 4 78t3 97t2 107.5t1 104.5q-29 10 -67 15t-66 5q-43 0 -84 -7t-72 -31.5t-49.5 -72.5t-18.5 -130zM158 1329 q0 35 20.5 59.5t59.5 24.5q41 0 61.5 -24.5t20.5 -59.5q0 -37 -22.5 -60.5t-59.5 -23.5q-43 0 -61.5 22.5t-18.5 61.5zM447 1329q0 35 20.5 59.5t59.5 24.5q41 0 61.5 -24.5t20.5 -59.5q0 -37 -22.5 -60.5t-59.5 -23.5q-43 0 -61.5 22.5t-18.5 61.5z" />
<glyph unicode="&#xe5;" horiz-adv-x="751" d="M74 285q0 109 25.5 174t68.5 101t98.5 47t112.5 11q41 0 87 -5t81 -19v180q0 49 -11.5 81t-33 50.5t-51 24.5t-66.5 6q-98 0 -176 -16.5t-119 -34.5q-16 33 -16 65q0 29 16 41q31 18 120 35.5t202 17.5q123 0 184 -54t61 -193v-123q0 -176 -3 -338t-7 -283 q-35 -23 -102.5 -48t-175.5 -25q-55 0 -108.5 8t-94.5 38.5t-66.5 92.5t-25.5 166zM190 289q0 -74 15.5 -116t42 -63.5t62.5 -26.5t75 -5q49 0 92 14t60 31q2 33 4 78t3 97t2 107.5t1 104.5q-29 10 -67 15t-66 5q-43 0 -84 -7t-72 -31.5t-49.5 -72.5t-18.5 -130zM195 1360 q0 98 51 142t142 44q90 0 133 -40t43 -144q0 -94 -49.5 -140t-141.5 -46q-84 0 -131 39t-47 145zM283 1356q0 -47 22.5 -73t69.5 -26t75 25t28 80q0 57 -23.5 78.5t-66.5 21.5q-51 0 -78 -23.5t-27 -82.5z" />
<glyph unicode="&#xe6;" horiz-adv-x="1269" d="M74 291q0 109 25.5 175t68.5 103t97 50.5t112 13.5q43 0 89 -5t81 -20v172q0 49 -13.5 81t-36 50.5t-55 24.5t-69.5 6q-88 0 -159 -16.5t-118 -42.5q-10 16 -12 36.5t-2 30.5q0 12 6 23.5t12 15.5q31 20 108 37.5t204 17.5q98 0 152 -35.5t71 -125.5q25 53 57.5 84.5 t69.5 49t77 22.5t81 5q135 0 196.5 -81.5t61.5 -235.5q0 -66 -5.5 -133.5t-15.5 -118.5q-49 -8 -96 -11t-94 -3q-98 0 -177 10t-122 21v-35q0 -125 16 -198t47 -109.5t73 -47t95 -10.5q74 0 139.5 17.5t114.5 52.5q8 -18 11 -49t3 -54q0 -10 -22.5 -22t-60 -24.5t-89 -20.5 t-106.5 -8q-78 0 -141.5 17t-104.5 77v-35q-35 -20 -100.5 -40.5t-173.5 -20.5q-55 0 -108.5 7t-94.5 37.5t-66.5 93t-25.5 171.5zM190 289q0 -74 15.5 -116t42 -63.5t61.5 -26.5t74 -5q49 0 97 12t67 31v403q-29 10 -67 15.5t-66 5.5q-43 0 -84 -8.5t-72 -36t-49.5 -77.5 t-18.5 -134zM672 586q45 -10 121.5 -21.5t158.5 -11.5q29 0 55.5 2t51.5 6q4 37 6 74t2 70q-2 123 -34 180t-124 57q-37 0 -74.5 -11t-71.5 -49t-58.5 -108.5t-32.5 -187.5z" />
<glyph unicode="&#xe7;" horiz-adv-x="677" d="M82 489q0 184 34 294t88 168.5t119.5 75.5t127.5 17q72 0 122 -23.5t50 -57.5q0 -12 -3.5 -31t-11.5 -37q-25 16 -65.5 31.5t-93.5 15.5q-41 0 -86.5 -13.5t-82 -61.5t-60 -139t-23.5 -245q0 -125 15 -203.5t45 -122.5t71 -59.5t92 -15.5q63 0 112.5 19.5t75.5 41.5 q14 -35 15 -65q0 -31 -54.5 -60.5t-144.5 -35.5l-21 -105q2 0 7 2q4 0 10 1t20 1q37 0 69 -27.5t32 -91.5q0 -84 -45 -120.5t-103 -36.5q-41 0 -76 10q-18 4 -32 10q2 16 6 29q4 10 7 21.5t7 17.5q8 8 32.5 -5.5t57.5 -13.5q31 0 50.5 17.5t19.5 56.5q0 43 -19.5 57.5 t-48.5 14.5q-16 0 -30.5 -2t-24.5 -4q-12 -4 -25 -7l33 175q-61 4 -110.5 26.5t-84 77.5t-54 152t-19.5 251z" />
<glyph unicode="&#xe8;" horiz-adv-x="768" d="M78 457q0 197 33.5 313.5t86 178t118 78.5t128.5 17q135 0 196.5 -85t61.5 -238q0 -66 -5 -130.5t-15 -115.5q-66 -12 -137.5 -20.5t-138 -11.5t-124 -4t-89.5 -1q0 -113 17 -181.5t48 -105t75 -49t99 -12.5q70 0 134.5 17.5t111.5 52.5q8 -20 11 -42t3 -38 q0 -18 -22.5 -36.5t-60.5 -32t-89 -22.5t-106 -9q-74 0 -135.5 16t-105.5 67.5t-69.5 145.5t-25.5 248zM195 532h78q48 0 103.5 3.5t110 9.5t97.5 16q4 37 6 71t2 66q-2 123 -34 183.5t-124 60.5q-39 0 -80 -13.5t-74.5 -56.5t-56 -124t-28.5 -216zM193 1411q2 10 6 25.5 t11.5 29t16.5 23.5t19 10q2 0 21.5 -15.5t49.5 -39t63.5 -53t64.5 -56t52.5 -47t27.5 -28.5q-6 -18 -15 -33q-6 -12 -13 -22.5t-15 -10.5q-4 0 -46 30.5t-94.5 69.5t-97.5 74t-51 43z" />
<glyph unicode="&#xe9;" horiz-adv-x="768" d="M78 457q0 197 33.5 313.5t86 178t118 78.5t128.5 17q135 0 196.5 -85t61.5 -238q0 -66 -5 -130.5t-15 -115.5q-66 -12 -137.5 -20.5t-138 -11.5t-124 -4t-89.5 -1q0 -113 17 -181.5t48 -105t75 -49t99 -12.5q70 0 134.5 17.5t111.5 52.5q8 -20 11 -42t3 -38 q0 -18 -22.5 -36.5t-60.5 -32t-89 -22.5t-106 -9q-74 0 -135.5 16t-105.5 67.5t-69.5 145.5t-25.5 248zM195 532h78q48 0 103.5 3.5t110 9.5t97.5 16q4 37 6 71t2 66q-2 123 -34 183.5t-124 60.5q-39 0 -80 -13.5t-74.5 -56.5t-56 -124t-28.5 -216zM346 1249q43 43 90 87 t88 78t68.5 55.5t32.5 21.5q10 0 19 -10.5t16.5 -24.5t11.5 -29.5t6 -25.5q-6 -8 -37 -33t-73 -56.5t-89 -66.5t-88 -61q-10 0 -17.5 10t-13.5 23q-8 14 -14 32z" />
<glyph unicode="&#xea;" horiz-adv-x="768" d="M78 457q0 197 33.5 313.5t86 178t118 78.5t128.5 17q135 0 196.5 -85t61.5 -238q0 -66 -5 -130.5t-15 -115.5q-66 -12 -137.5 -20.5t-138 -11.5t-124 -4t-89.5 -1q0 -113 17 -181.5t48 -105t75 -49t99 -12.5q70 0 134.5 17.5t111.5 52.5q8 -20 11 -42t3 -38 q0 -18 -22.5 -36.5t-60.5 -32t-89 -22.5t-106 -9q-74 0 -135.5 16t-105.5 67.5t-69.5 145.5t-25.5 248zM195 532h78q48 0 103.5 3.5t110 9.5t97.5 16q4 37 6 71t2 66q-2 123 -34 183.5t-124 60.5q-39 0 -80 -13.5t-74.5 -56.5t-56 -124t-28.5 -216zM178 1227l227 233 q12 4 27 4q10 0 20.5 -4t20.5 -14q55 -55 98 -103q37 -41 69 -75.5t32 -40.5q0 -10 -26 -25.5t-58 -15.5q-41 41 -74 78q-29 31 -54.5 59.5t-29.5 38.5q-41 -51 -78 -88q-31 -33 -58.5 -59.5t-37.5 -26.5q-33 0 -51.5 14.5t-26.5 24.5z" />
<glyph unicode="&#xeb;" horiz-adv-x="768" d="M78 457q0 197 33.5 313.5t86 178t118 78.5t128.5 17q135 0 196.5 -85t61.5 -238q0 -66 -5 -130.5t-15 -115.5q-66 -12 -137.5 -20.5t-138 -11.5t-124 -4t-89.5 -1q0 -113 17 -181.5t48 -105t75 -49t99 -12.5q70 0 134.5 17.5t111.5 52.5q8 -20 11 -42t3 -38 q0 -18 -22.5 -36.5t-60.5 -32t-89 -22.5t-106 -9q-74 0 -135.5 16t-105.5 67.5t-69.5 145.5t-25.5 248zM195 532h78q48 0 103.5 3.5t110 9.5t97.5 16q4 37 6 71t2 66q-2 123 -34 183.5t-124 60.5q-39 0 -80 -13.5t-74.5 -56.5t-56 -124t-28.5 -216zM207 1329q0 35 20.5 59.5 t59.5 24.5q41 0 61.5 -24.5t20.5 -59.5q0 -37 -22.5 -60.5t-59.5 -23.5q-43 0 -61.5 22.5t-18.5 61.5zM496 1329q0 35 20.5 59.5t59.5 24.5q41 0 61.5 -24.5t20.5 -59.5q0 -37 -22.5 -60.5t-59.5 -23.5q-43 0 -61.5 22.5t-18.5 61.5z" />
<glyph unicode="&#xec;" horiz-adv-x="350" d="M117 0v969q0 41 24.5 48t91.5 7v-997q0 -10 -2 -15.5t-13 -8.5t-35 -3h-66zM-57 1411q2 10 6 25.5t11.5 29t16.5 23.5t19 10q2 0 21.5 -15.5t49.5 -39t63.5 -53t64.5 -56t52.5 -47t27.5 -28.5q-6 -18 -15 -33q-6 -12 -13 -22.5t-15 -10.5q-4 0 -46 30.5t-94.5 69.5 t-97.5 74t-51 43z" />
<glyph unicode="&#xed;" horiz-adv-x="350" d="M117 0v969q0 41 24.5 48t91.5 7v-997q0 -10 -2 -15.5t-13 -8.5t-35 -3h-66zM92 1249q43 43 90 87t88 78t68.5 55.5t32.5 21.5q10 0 19 -10.5t16.5 -24.5t11.5 -29.5t6 -25.5q-6 -8 -37 -33t-73 -56.5t-89 -66.5t-88 -61q-10 0 -17.5 10t-13.5 23q-8 14 -14 32z" />
<glyph unicode="&#xee;" horiz-adv-x="350" d="M117 0v969q0 41 24.5 48t91.5 7v-997q0 -10 -2 -15.5t-13 -8.5t-35 -3h-66zM-74 1227l227 233q12 4 27 4q10 0 20.5 -4t20.5 -14q55 -55 98 -103q37 -41 69 -75.5t32 -40.5q0 -10 -26 -25.5t-58 -15.5q-41 41 -74 78q-29 31 -54.5 59.5t-29.5 38.5q-41 -51 -78 -88 q-31 -33 -58.5 -59.5t-37.5 -26.5q-33 0 -51.5 14.5t-26.5 24.5z" />
<glyph unicode="&#xef;" horiz-adv-x="350" d="M117 0v969q0 41 24.5 48t91.5 7v-997q0 -10 -2 -15.5t-13 -8.5t-35 -3h-66zM-45 1329q0 35 20.5 59.5t59.5 24.5q41 0 61.5 -24.5t20.5 -59.5q0 -37 -22.5 -60.5t-59.5 -23.5q-43 0 -61.5 22.5t-18.5 61.5zM244 1329q0 35 20.5 59.5t59.5 24.5q41 0 61.5 -24.5 t20.5 -59.5q0 -37 -22.5 -60.5t-59.5 -23.5q-43 0 -61.5 22.5t-18.5 61.5z" />
<glyph unicode="&#xf0;" horiz-adv-x="894" d="M94 526q0 256 92.5 386t257.5 130q141 0 226 -92q-45 184 -158 328l-197 -78q-20 53 -25 74.5t15 30.5l135 53q-29 29 -61.5 55.5t-67.5 54.5q12 25 34 40.5t44 15.5q27 0 47 -21q31 -25 58.5 -49t54.5 -53l158 63q20 -53 25 -74.5t-15 -29.5l-99 -39 q102 -135 151.5 -314.5t49.5 -414.5q0 -121 -13 -232.5t-51 -195.5t-109 -134t-183 -50q-184 0 -276.5 125.5t-92.5 420.5zM207 510q0 -229 66.5 -330.5t187.5 -101.5q82 0 131 44t74.5 115.5t33 166t7.5 194.5q0 53 -3.5 101.5t-7.5 95.5q-86 143 -227 143 q-129 0 -195.5 -113.5t-66.5 -314.5z" />
<glyph unicode="&#xf1;" horiz-adv-x="821" d="M113 0v973q72 31 158.5 51t172.5 20q82 0 136.5 -16t87 -51t45 -88t12.5 -125v-737q0 -10 -2 -15.5t-13.5 -8.5t-33.5 -3h-66v733q0 55 -7 95t-25.5 66t-51 38t-86.5 12q-45 0 -106.5 -11t-108.5 -36v-870q0 -10 -2 -15.5t-13 -8.5t-34 -3h-63zM141 1278 q49 84 102.5 111.5t106.5 27.5q35 0 56.5 -16.5t39 -35.5t37.5 -35.5t53 -16.5q39 0 63.5 14t39 31.5t22.5 32t19 14.5q10 0 18 -10.5t14 -22.5q8 -14 13 -33q-6 -14 -22.5 -36.5t-41 -44t-59.5 -38t-80 -16.5t-70.5 17.5t-44 37t-35 37t-43.5 17.5q-29 0 -49 -14.5 t-35.5 -32t-25.5 -31.5t-19 -14q-12 0 -22 9t-19 19q-8 13 -18 29z" />
<glyph unicode="&#xf2;" horiz-adv-x="784" d="M63 510q0 285 91.5 409.5t251.5 124.5q80 0 139 -24.5t99 -85t59.5 -162.5t19.5 -260q0 -276 -88 -404t-252 -128q-74 0 -133.5 17t-101.5 73.5t-63.5 161t-21.5 278.5zM184 502q0 -133 13.5 -216t40 -129t63.5 -62.5t86 -16.5t88 23.5t67.5 75.5t44 135t15.5 204 q0 133 -13.5 216t-39 130t-62 64.5t-86.5 17.5q-49 0 -89 -20.5t-68.5 -71.5t-44 -136t-15.5 -214zM168 1411q2 10 6 25.5t11.5 29t16.5 23.5t19 10q2 0 21.5 -15.5t49.5 -39t63.5 -53t64.5 -56t52.5 -47t27.5 -28.5q-6 -18 -15 -33q-6 -12 -13 -22.5t-15 -10.5 q-4 0 -46 30.5t-94.5 69.5t-97.5 74t-51 43z" />
<glyph unicode="&#xf3;" horiz-adv-x="784" d="M63 510q0 285 91.5 409.5t251.5 124.5q80 0 139 -24.5t99 -85t59.5 -162.5t19.5 -260q0 -276 -88 -404t-252 -128q-74 0 -133.5 17t-101.5 73.5t-63.5 161t-21.5 278.5zM184 502q0 -133 13.5 -216t40 -129t63.5 -62.5t86 -16.5t88 23.5t67.5 75.5t44 135t15.5 204 q0 133 -13.5 216t-39 130t-62 64.5t-86.5 17.5q-49 0 -89 -20.5t-68.5 -71.5t-44 -136t-15.5 -214zM319 1249q43 43 90 87t88 78t68.5 55.5t32.5 21.5q10 0 19 -10.5t16.5 -24.5t11.5 -29.5t6 -25.5q-6 -8 -37 -33t-73 -56.5t-89 -66.5t-88 -61q-10 0 -17.5 10t-13.5 23 q-8 14 -14 32z" />
<glyph unicode="&#xf4;" horiz-adv-x="784" d="M63 510q0 285 91.5 409.5t251.5 124.5q80 0 139 -24.5t99 -85t59.5 -162.5t19.5 -260q0 -276 -88 -404t-252 -128q-74 0 -133.5 17t-101.5 73.5t-63.5 161t-21.5 278.5zM184 502q0 -133 13.5 -216t40 -129t63.5 -62.5t86 -16.5t88 23.5t67.5 75.5t44 135t15.5 204 q0 133 -13.5 216t-39 130t-62 64.5t-86.5 17.5q-49 0 -89 -20.5t-68.5 -71.5t-44 -136t-15.5 -214zM152 1227l227 233q12 4 27 4q10 0 20.5 -4t20.5 -14q55 -55 98 -103q37 -41 69 -75.5t32 -40.5q0 -10 -26 -25.5t-58 -15.5q-41 41 -74 78q-29 31 -54.5 59.5t-29.5 38.5 q-41 -51 -78 -88q-31 -33 -58.5 -59.5t-37.5 -26.5q-33 0 -51.5 14.5t-26.5 24.5z" />
<glyph unicode="&#xf5;" horiz-adv-x="784" d="M63 510q0 285 91.5 409.5t251.5 124.5q80 0 139 -24.5t99 -85t59.5 -162.5t19.5 -260q0 -276 -88 -404t-252 -128q-74 0 -133.5 17t-101.5 73.5t-63.5 161t-21.5 278.5zM184 502q0 -133 13.5 -216t40 -129t63.5 -62.5t86 -16.5t88 23.5t67.5 75.5t44 135t15.5 204 q0 133 -13.5 216t-39 130t-62 64.5t-86.5 17.5q-49 0 -89 -20.5t-68.5 -71.5t-44 -136t-15.5 -214zM109 1278q49 84 102.5 111.5t106.5 27.5q35 0 56.5 -16.5t39 -35.5t37.5 -35.5t53 -16.5q39 0 63.5 14t39 31.5t22.5 32t19 14.5q10 0 18 -10.5t14 -22.5q8 -14 13 -33 q-6 -14 -22.5 -36.5t-41 -44t-59.5 -38t-80 -16.5t-70.5 17.5t-44 37t-35 37t-43.5 17.5q-29 0 -49 -14.5t-35.5 -32t-25.5 -31.5t-19 -14q-12 0 -22 9t-19 19q-8 13 -18 29z" />
<glyph unicode="&#xf6;" horiz-adv-x="784" d="M63 510q0 285 91.5 409.5t251.5 124.5q80 0 139 -24.5t99 -85t59.5 -162.5t19.5 -260q0 -276 -88 -404t-252 -128q-74 0 -133.5 17t-101.5 73.5t-63.5 161t-21.5 278.5zM184 502q0 -133 13.5 -216t40 -129t63.5 -62.5t86 -16.5t88 23.5t67.5 75.5t44 135t15.5 204 q0 133 -13.5 216t-39 130t-62 64.5t-86.5 17.5q-49 0 -89 -20.5t-68.5 -71.5t-44 -136t-15.5 -214zM180 1329q0 35 20.5 59.5t59.5 24.5q41 0 61.5 -24.5t20.5 -59.5q0 -37 -22.5 -60.5t-59.5 -23.5q-43 0 -61.5 22.5t-18.5 61.5zM469 1329q0 35 20.5 59.5t59.5 24.5 q41 0 61.5 -24.5t20.5 -59.5q0 -37 -22.5 -60.5t-59.5 -23.5q-43 0 -61.5 22.5t-18.5 61.5z" />
<glyph unicode="&#xf7;" d="M86 526q0 57 3 80t24 23h690q0 -59 -3 -81t-26 -22h-688zM358 287q0 35 20.5 60.5t59.5 25.5q41 0 61.5 -24.5t20.5 -61.5q0 -35 -22.5 -59.5t-59.5 -24.5q-43 0 -61.5 22.5t-18.5 61.5zM358 856q0 35 20.5 59.5t59.5 24.5q41 0 61.5 -23.5t20.5 -60.5t-22.5 -61.5 t-59.5 -24.5q-43 0 -61.5 22.5t-18.5 63.5z" />
<glyph unicode="&#xf8;" horiz-adv-x="868" d="M57 4q0 2 10.5 21.5t26 46t31.5 53.5t27 45q-18 59 -27.5 141t-9.5 199q0 285 89 409.5t249 124.5q74 0 130 -20t97 -74q23 41 45.5 77t28.5 42q18 -4 32 -12q12 -6 23.5 -15.5t11.5 -21.5q0 -4 -9 -21.5t-23.5 -42t-30 -51t-29.5 -49.5q23 -61 33 -145t10 -199 q0 -276 -87 -404t-243 -128q-82 0 -143 19t-102 79q-23 -41 -46.5 -80t-27.5 -43q-12 2 -39 14t-27 35zM233 502q0 -72 4.5 -129.5t12.5 -102.5l348 592q-25 47 -62.5 64.5t-84.5 17.5q-49 0 -89 -20.5t-69 -71.5t-44.5 -136t-15.5 -214zM279 174q27 -57 65.5 -76.5 t91.5 -19.5q49 0 88 23.5t68 75.5t44 135t15 204q0 82 -5 143.5t-15 108.5q-35 -59 -85 -144t-101.5 -172t-96 -163t-69.5 -115z" />
<glyph unicode="&#xf9;" horiz-adv-x="851" d="M119 346v649q0 10 1 16.5t12 9.5t35 3h66v-692q0 -72 8.5 -120t30 -78t60.5 -42t98 -12q35 0 88 9t100 38v868q0 10 2.5 16.5t13.5 9.5t34 3h63v-973q-68 -35 -150.5 -53t-160.5 -18q-90 0 -148.5 20t-92.5 65.5t-47 114t-13 166.5zM197 1411q2 10 6 25.5t11.5 29 t16.5 23.5t19 10q2 0 21.5 -15.5t49.5 -39t63.5 -53t64.5 -56t52.5 -47t27.5 -28.5q-6 -18 -15 -33q-6 -12 -13 -22.5t-15 -10.5q-4 0 -46 30.5t-94.5 69.5t-97.5 74t-51 43z" />
<glyph unicode="&#xfa;" horiz-adv-x="851" d="M119 346v649q0 10 1 16.5t12 9.5t35 3h66v-692q0 -72 8.5 -120t30 -78t60.5 -42t98 -12q35 0 88 9t100 38v868q0 10 2.5 16.5t13.5 9.5t34 3h63v-973q-68 -35 -150.5 -53t-160.5 -18q-90 0 -148.5 20t-92.5 65.5t-47 114t-13 166.5zM348 1249q43 43 90 87t88 78 t68.5 55.5t32.5 21.5q10 0 19 -10.5t16.5 -24.5t11.5 -29.5t6 -25.5q-6 -8 -37 -33t-73 -56.5t-89 -66.5t-88 -61q-10 0 -17.5 10t-13.5 23q-8 14 -14 32z" />
<glyph unicode="&#xfb;" horiz-adv-x="851" d="M119 346v649q0 10 1 16.5t12 9.5t35 3h66v-692q0 -72 8.5 -120t30 -78t60.5 -42t98 -12q35 0 88 9t100 38v868q0 10 2.5 16.5t13.5 9.5t34 3h63v-973q-68 -35 -150.5 -53t-160.5 -18q-90 0 -148.5 20t-92.5 65.5t-47 114t-13 166.5zM180 1227l227 233q12 4 27 4 q10 0 20.5 -4t20.5 -14q55 -55 98 -103q37 -41 69 -75.5t32 -40.5q0 -10 -26 -25.5t-58 -15.5q-41 41 -74 78q-29 31 -54.5 59.5t-29.5 38.5q-41 -51 -78 -88q-31 -33 -58.5 -59.5t-37.5 -26.5q-33 0 -51.5 14.5t-26.5 24.5z" />
<glyph unicode="&#xfc;" horiz-adv-x="851" d="M119 346v649q0 10 1 16.5t12 9.5t35 3h66v-692q0 -72 8.5 -120t30 -78t60.5 -42t98 -12q35 0 88 9t100 38v868q0 10 2.5 16.5t13.5 9.5t34 3h63v-973q-68 -35 -150.5 -53t-160.5 -18q-90 0 -148.5 20t-92.5 65.5t-47 114t-13 166.5zM209 1329q0 35 20.5 59.5t59.5 24.5 q41 0 61.5 -24.5t20.5 -59.5q0 -37 -22.5 -60.5t-59.5 -23.5q-43 0 -61.5 22.5t-18.5 61.5zM498 1329q0 35 20.5 59.5t59.5 24.5q41 0 61.5 -24.5t20.5 -59.5q0 -37 -22.5 -60.5t-59.5 -23.5q-43 0 -61.5 22.5t-18.5 61.5z" />
<glyph unicode="&#xfd;" horiz-adv-x="757" d="M2 -334q0 16 6 35.5t15 30.5q25 -12 60.5 -20.5t63.5 -8.5q57 0 105.5 57.5t81.5 206.5l-266 1022q-4 12 -3 19.5t11 10.5t33.5 4t66.5 1l154 -602q12 -53 22 -105.5t17.5 -97.5t12.5 -75.5t7 -39.5q0 6 5 37t12.5 75t16.5 98.5t21 109.5l138 565q2 12 5 19.5t14 10.5 t34.5 4t66.5 1l-270 -1087q-23 -94 -50.5 -158t-62 -102.5t-75.5 -55t-92 -16.5q-74 0 -112 16t-38 45zM309 1249q43 43 90 87t88 78t68.5 55.5t32.5 21.5q10 0 19 -10.5t16.5 -24.5t11.5 -29.5t6 -25.5q-6 -8 -37 -33t-73 -56.5t-89 -66.5t-88 -61q-10 0 -17.5 10t-13.5 23 q-8 14 -14 32z" />
<glyph unicode="&#xfe;" horiz-adv-x="819" d="M117 -365v1815q0 41 22.5 48t89.5 7v-489q80 27 183 26q78 0 140 -20.5t106 -70.5t68 -135t24 -214q0 -205 -37 -326.5t-91.5 -187t-113.5 -86t-105 -20.5q-66 0 -108.5 19t-65.5 44v-446q-25 -8 -65 -9q-29 0 -38 8t-9 37zM229 158q27 -43 64 -60.5t80 -17.5 q31 0 75 17.5t83.5 70.5t67.5 153.5t28 268.5q0 109 -15.5 177.5t-43 107t-68.5 53t-90 14.5q-104 0 -181 -53v-731z" />
<glyph unicode="&#xff;" horiz-adv-x="757" d="M2 -334q0 16 6 35.5t15 30.5q25 -12 60.5 -20.5t63.5 -8.5q57 0 105.5 57.5t81.5 206.5l-266 1022q-4 12 -3 19.5t11 10.5t33.5 4t66.5 1l154 -602q12 -53 22 -105.5t17.5 -97.5t12.5 -75.5t7 -39.5q0 6 5 37t12.5 75t16.5 98.5t21 109.5l138 565q2 12 5 19.5t14 10.5 t34.5 4t66.5 1l-270 -1087q-23 -94 -50.5 -158t-62 -102.5t-75.5 -55t-92 -16.5q-74 0 -112 16t-38 45zM170 1329q0 35 20.5 59.5t59.5 24.5q41 0 61.5 -24.5t20.5 -59.5q0 -37 -22.5 -60.5t-59.5 -23.5q-43 0 -61.5 22.5t-18.5 61.5zM459 1329q0 35 20.5 59.5t59.5 24.5 q41 0 61.5 -24.5t20.5 -59.5q0 -37 -22.5 -60.5t-59.5 -23.5q-43 0 -61.5 22.5t-18.5 61.5z" />
<glyph unicode="&#x131;" horiz-adv-x="350" d="M117 0v969q0 41 24.5 48t91.5 7v-997q0 -10 -2 -15.5t-13 -8.5t-35 -3h-66z" />
<glyph unicode="&#x152;" horiz-adv-x="1284" d="M74 725q0 199 23.5 337t71.5 225t122 127t172 40q92 0 155.5 -30.5t106.5 -102.5v84q0 6 4 14q4 4 8 9.5t15 5.5h477q0 -70 -3 -87.5t-20 -17.5h-383v-493h359q0 -66 -3 -85.5t-22 -19.5h-334v-627h404q0 -72 -3 -88t-24 -16h-475v133q-45 -80 -113.5 -115.5 t-165.5 -35.5q-98 0 -168.5 35.5t-115.5 120.5t-66.5 228.5t-21.5 358.5zM199 692q0 -164 13 -277.5t43 -186t78 -105.5t116 -33q70 0 117.5 35t77.5 111.5t42 198.5t12 296q0 170 -11 287t-37.5 189.5t-72 105.5t-112.5 33q-68 0 -118 -35t-83 -113t-49 -203t-16 -303z" />
<glyph unicode="&#x153;" horiz-adv-x="1316" d="M76 510q0 285 90 409.5t250 124.5q98 0 164.5 -36.5t105.5 -133.5q27 57 61.5 91t74.5 51.5t82 22.5t83 5q135 0 196.5 -81.5t61.5 -235.5q0 -66 -5 -133.5t-15 -118.5q-66 -12 -137.5 -20.5t-138 -11.5t-124 -4t-90.5 -1q0 -119 17.5 -188.5t48 -104t72.5 -45t94 -10.5 q156 0 254 70q8 -20 11 -51t3 -54q0 -10 -22.5 -22.5t-60.5 -24.5t-89 -20t-107 -8q-49 0 -92 6t-79.5 23.5t-66.5 48t-50 81.5q-84 -160 -262 -159q-78 0 -139.5 17t-103.5 73.5t-64.5 161t-22.5 278.5zM197 502q0 -133 13 -216t39.5 -129t63.5 -62.5t86 -16.5t88 23.5 t68 75.5t44 135t15 204q0 133 -13 216t-38.5 130t-62.5 63.5t-86 16.5t-89 -20.5t-69 -70.5t-44 -135t-15 -214zM735 532h80q49 0 103.5 3.5t109.5 9.5t98 16q4 37 6.5 74t2.5 70q-2 123 -34 180t-124 57q-39 0 -80 -11t-75 -53t-57.5 -124.5t-29.5 -221.5z" />
<glyph unicode="&#x178;" horiz-adv-x="739" d="M25 1432q12 2 38 2h76l99 -293q20 -57 43.5 -130t43 -139.5t34 -118t18.5 -67.5q2 16 16.5 67.5t35 119t44 139t43.5 131.5l90 270q2 8 5 12.5t15.5 6.5t36.5 2h66l-299 -848v-559q0 -10 -1 -15.5t-12 -8.5t-34 -3h-66v582l-305 833q-1 4 -1 7q0 8 14 10zM156 1739 q0 35 20.5 59.5t59.5 24.5q41 0 61.5 -24.5t20.5 -59.5q0 -37 -22.5 -60.5t-59.5 -23.5q-43 0 -61.5 22.5t-18.5 61.5zM445 1739q0 35 20.5 59.5t59.5 24.5q41 0 61.5 -24.5t20.5 -59.5q0 -37 -22.5 -60.5t-59.5 -23.5q-43 0 -61.5 22.5t-18.5 61.5z" />
<glyph unicode="&#x237;" horiz-adv-x="372" d="M-231 -305q0 39 18 63q35 -23 83 -38t114 -15q49 0 77.5 15.5t44 46t20.5 75.5t5 105v1022q0 41 22.5 48t90.5 7v-1100q0 -70 -10.5 -129t-38 -102t-76.5 -67.5t-127 -24.5q-111 0 -167 28.5t-56 65.5z" />
<glyph unicode="&#x2c6;" horiz-adv-x="493" d="M0 1227l227 233q12 4 27 4q10 0 20.5 -4t20.5 -14q55 -55 98 -103q37 -41 69 -75.5t32 -40.5q0 -10 -26 -25.5t-58 -15.5q-41 41 -74 78q-29 31 -54.5 59.5t-29.5 38.5q-41 -51 -78 -88q-31 -33 -58.5 -59.5t-37.5 -26.5q-33 0 -51.5 14.5t-26.5 24.5z" />
<glyph unicode="&#x2d9;" horiz-adv-x="133" d="M2 1370q0 94 68 94q35 0 49 -22.5t14 -69.5q-4 -96 -70 -96q-31 0 -47 21.5t-14 72.5z" />
<glyph unicode="&#x2da;" horiz-adv-x="368" d="M0 1360q0 98 51 142t142 44q90 0 133 -40t43 -144q0 -94 -49.5 -140t-141.5 -46q-84 0 -131 39t-47 145zM88 1356q0 -47 22.5 -73t69.5 -26t75 25t28 80q0 57 -23.5 78.5t-66.5 21.5q-51 0 -78 -23.5t-27 -82.5z" />
<glyph unicode="&#x2dc;" horiz-adv-x="583" d="M0 1278q49 84 102.5 111.5t106.5 27.5q35 0 56.5 -16.5t39 -35.5t37.5 -35.5t53 -16.5q39 0 63.5 14t39 31.5t22.5 32t19 14.5q10 0 18 -10.5t14 -22.5q8 -14 13 -33q-6 -14 -22.5 -36.5t-41 -44t-59.5 -38t-80 -16.5t-70.5 17.5t-44 37t-35 37t-43.5 17.5 q-29 0 -49 -14.5t-35.5 -32t-25.5 -31.5t-19 -14q-12 0 -22 9t-19 19q-8 13 -18 29z" />
<glyph unicode="&#x2000;" horiz-adv-x="976" />
<glyph unicode="&#x2001;" horiz-adv-x="1955" />
<glyph unicode="&#x2002;" horiz-adv-x="976" />
<glyph unicode="&#x2003;" horiz-adv-x="1955" />
<glyph unicode="&#x2004;" horiz-adv-x="651" />
<glyph unicode="&#x2005;" horiz-adv-x="487" />
<glyph unicode="&#x2006;" horiz-adv-x="325" />
<glyph unicode="&#x2007;" horiz-adv-x="325" />
<glyph unicode="&#x2008;" horiz-adv-x="243" />
<glyph unicode="&#x2009;" horiz-adv-x="391" />
<glyph unicode="&#x200a;" horiz-adv-x="108" />
<glyph unicode="&#x2010;" horiz-adv-x="593" d="M88 526q0 57 3 80t24 23h391q0 -59 -3 -81t-26 -22h-389z" />
<glyph unicode="&#x2011;" horiz-adv-x="593" d="M88 526q0 57 3 80t24 23h391q0 -59 -3 -81t-26 -22h-389z" />
<glyph unicode="&#x2012;" horiz-adv-x="593" d="M88 526q0 57 3 80t24 23h391q0 -59 -3 -81t-26 -22h-389z" />
<glyph unicode="&#x2013;" horiz-adv-x="892" d="M88 526q0 57 3 80t24 23h690q0 -59 -3 -81t-26 -22h-688z" />
<glyph unicode="&#x2014;" horiz-adv-x="1433" d="M12 526q0 57 3 80t24 23h1382q0 -59 -3 -81t-25 -22h-1381z" />
<glyph unicode="&#x2018;" horiz-adv-x="325" d="M76 1284q0 49 15 107.5t34.5 109.5t41 85t34.5 34q16 0 29.5 -9t17.5 -28q-29 -57 -37 -120.5t-10 -110.5q41 -25 41 -82q0 -37 -22.5 -60.5t-57.5 -23.5q-41 0 -63.5 21.5t-22.5 76.5z" />
<glyph unicode="&#x2019;" horiz-adv-x="325" d="M78 1212q29 57 37 121t10 111q-41 25 -41 82q0 35 22.5 59.5t59.5 24.5q39 0 61.5 -22.5t22.5 -76.5q0 -49 -15.5 -107t-35 -109.5t-41 -85t-33.5 -33.5q-16 0 -29.5 9t-17.5 27z" />
<glyph unicode="&#x201a;" horiz-adv-x="321" d="M78 -193q29 59 37 122t10 110q-41 25 -41 82q0 37 22.5 60.5t59.5 23.5q39 0 61.5 -21.5t22.5 -77.5q0 -49 -15.5 -107t-35 -108.5t-41 -85t-33.5 -34.5q-16 0 -29.5 9t-17.5 27z" />
<glyph unicode="&#x201c;" horiz-adv-x="610" d="M76 1284q0 49 15 107.5t34.5 109.5t41 85t34.5 34q16 0 29.5 -9t17.5 -28q-29 -57 -37 -120.5t-10 -110.5q41 -25 41 -82q0 -37 -22.5 -60.5t-57.5 -23.5q-41 0 -63.5 21.5t-22.5 76.5zM360 1284q0 49 14.5 107.5t35 109.5t42 85t33.5 34q16 0 29.5 -9t17.5 -28 q-29 -57 -37 -120.5t-10 -110.5q39 -25 39 -82q0 -37 -21.5 -60.5t-58.5 -23.5q-41 0 -62.5 21.5t-21.5 76.5z" />
<glyph unicode="&#x201d;" horiz-adv-x="610" d="M78 1212q29 57 37 121t10 111q-41 25 -41 82q0 35 22.5 59.5t59.5 24.5q39 0 61.5 -22.5t22.5 -76.5q0 -49 -15.5 -107t-35 -109.5t-41 -85t-33.5 -33.5q-16 0 -29.5 9t-17.5 27zM360 1212q29 57 38.5 121t11.5 111q-41 25 -41 82q0 35 22.5 59.5t57.5 24.5 q41 0 62 -22.5t21 -76.5q0 -49 -14 -107t-34.5 -109.5t-41 -85t-32.5 -33.5q-16 0 -31 9t-19 27z" />
<glyph unicode="&#x201e;" horiz-adv-x="606" d="M78 -193q29 59 37 122t10 110q-41 25 -41 82q0 37 22.5 60.5t59.5 23.5q39 0 61.5 -21.5t22.5 -77.5q0 -49 -15.5 -107t-35 -108.5t-41 -85t-33.5 -34.5q-16 0 -29.5 9t-17.5 27zM360 -193q29 59 38.5 122t11.5 110q-41 25 -41 82q0 37 22.5 60.5t57.5 23.5 q41 0 62 -21.5t21 -77.5q0 -49 -14 -107t-34.5 -108.5t-41 -85t-32.5 -34.5q-16 0 -31 9t-19 27z" />
<glyph unicode="&#x2022;" horiz-adv-x="438" d="M104 578q0 53 33 93t90 40q66 0 97.5 -38t31.5 -95t-34.5 -95.5t-94.5 -38.5q-66 0 -94.5 37.5t-28.5 96.5z" />
<glyph unicode="&#x2026;" horiz-adv-x="999" d="M92 82q0 37 22.5 64.5t63.5 27.5q47 0 68.5 -25.5t21.5 -66.5q0 -39 -24.5 -65.5t-65.5 -26.5q-47 0 -66.5 24.5t-19.5 67.5zM411 82q0 37 22.5 64.5t63.5 27.5q47 0 68.5 -25.5t21.5 -66.5q0 -39 -24.5 -65.5t-65.5 -26.5q-47 0 -66.5 24.5t-19.5 67.5zM733 82 q0 37 22.5 64.5t63.5 27.5q47 0 68.5 -25.5t21.5 -66.5q0 -39 -24.5 -65.5t-65.5 -26.5q-47 0 -66.5 24.5t-19.5 67.5z" />
<glyph unicode="&#x202f;" horiz-adv-x="391" />
<glyph unicode="&#x2039;" horiz-adv-x="524" d="M57 512q0 10 13.5 38t35 65.5t48 82.5t55.5 90q68 106 153 236q16 0 27.5 -9t22.5 -20q10 -12 18 -28q0 -10 -11 -36t-30.5 -59.5t-43 -73.5t-48.5 -79q-57 -94 -131 -207q76 -111 135 -203l49 -78q25 -39 44.5 -72.5t31.5 -57t12 -31.5q-8 -20 -18 -35 q-10 -14 -21.5 -24.5t-25.5 -10.5q-90 127 -158 233q-31 45 -58.5 90.5t-50 84t-36 66.5t-13.5 38z" />
<glyph unicode="&#x203a;" horiz-adv-x="524" d="M88 68q0 8 11.5 32.5t31 57t43.5 71.5l49 78q59 92 137 205q-76 113 -133 207q-25 39 -49 79t-42.5 73.5t-30 59t-11.5 36.5q0 16 10.5 25t24.5 18q14 8 35 14q84 -129 151 -236q29 -45 55.5 -90t48 -82.5t35 -65.5t13.5 -38t-13.5 -38t-36 -66.5t-50.5 -83.5l-58 -91 q-68 -106 -155 -233q-18 6 -33 14q-12 8 -22.5 21t-10.5 33z" />
<glyph unicode="&#x2044;" horiz-adv-x="401" d="M-250 27l817 1400q8 27 37 27q41 0 76 -43l-819 -1411q-8 -18 -33 -18q-18 0 -41 11t-37 34z" />
<glyph unicode="&#x205f;" horiz-adv-x="487" />
<glyph unicode="&#x2074;" horiz-adv-x="839" d="M106 797q0 23 15 63q20 63 59 140t88 154t102.5 145.5t102.5 115.5q23 25 46.5 32t45.5 7q12 0 24.5 -2t22.5 -4v-596h144q10 -25 10 -55q0 -23 -9 -38.5t-26 -15.5h-119v-122q0 -39 -61 -39q-20 0 -45 6v155h-383q-17 19 -17 54zM217 846h291l4 467q-37 -33 -80 -85 t-85 -115.5t-77 -133.5t-53 -133z" />
<glyph unicode="&#x20ac;" d="M45 430q0 53 8 73.5t39 20.5h135v29q0 92 6 170h-188q0 53 8 73.5t39 20.5h152q20 137 61 221t92.5 129t109.5 59.5t114 14.5q49 0 85.5 -9t61.5 -22.5t36 -27t11 -21.5q0 -23 -6 -44t-16 -32q-10 10 -53.5 30t-96.5 20q-39 0 -81 -10.5t-80 -43t-68.5 -95t-48.5 -169.5 h333q0 -53 -8 -73.5t-39 -20.5h-299q-6 -78 -6 -170v-29h277q0 -53 -8.5 -73.5t-39.5 -20.5h-225q8 -115 32 -182.5t57.5 -102t74.5 -45t84 -10.5q59 0 114.5 22.5t84.5 51.5q6 -12 12 -32.5t6 -43.5q0 -14 -18.5 -32.5t-51 -36t-74.5 -28.5t-91 -11q-66 0 -125.5 14 t-105.5 61t-77.5 136.5t-40.5 238.5h-186z" />
<glyph unicode="&#x2122;" horiz-adv-x="1085" d="M70 1368v45q0 14 10 19q4 2 10 2h414v-45q0 -14 -10 -19q-4 -2 -9 -2h-155v-565q0 -14 -9.5 -16.5t-60.5 -2.5v584h-190zM553 784v629q0 4 2 10q4 10 18 11h43l103 -285q2 -8 9 -27.5t17 -42.5q10 -25 23 -55q10 29 18 53q8 23 13.5 42.5t9.5 27.5l98 266l6 12q4 8 15 9 h49v-629q0 -16 -9.5 -18.5t-60.5 -2.5l2 234q0 10 1 39.5t2 64.5t2 72t1 61q-18 -49 -35.5 -98t-19.5 -57l-67 -176q-4 -10 -11 -11h-43l-71 187l-56 151q0 -18 2 -53t3 -71.5t2.5 -67.5t1.5 -43l2 -211q0 -16 -9.5 -18.5t-60.5 -2.5z" />
<glyph unicode="&#xe000;" horiz-adv-x="1025" d="M0 1025h1025v-1025h-1025v1025z" />
<glyph unicode="&#xfb01;" horiz-adv-x="813" d="M23 926v54q0 19 3 29.5t10 12.5t19 2h123v129q0 125 32 196.5t83 108.5t111.5 46t119.5 9q98 0 153.5 -19t55.5 -54q0 -33 -14 -68q-84 39 -193 39q-43 0 -85 -7t-75.5 -32.5t-54 -78t-20.5 -142.5v-127h172q0 -35 -1 -54.5t-4 -29.5t-8.5 -12t-15.5 -2h-143v-899 q0 -8 -4 -15q-8 -12 -25 -12h-84v926h-155zM584 0v969q0 41 23.5 48t90.5 7v-997q0 -10 -2 -15.5t-12 -8.5t-34 -3h-66z" />
<glyph unicode="&#xfb02;" horiz-adv-x="833" d="M20 926v54q0 19 3.5 29.5t10.5 12.5t19 2h123v129q0 125 32 196.5t78 107.5t99 45t96 9q70 0 129.5 -15t106.5 -42v-1427q0 -8 -4 -15q-8 -12 -25 -12h-84v1397q-29 10 -58.5 14t-58.5 4t-63.5 -5t-64 -29.5t-50 -75t-20.5 -140.5v-141h205q0 -35 -1 -54.5t-4.5 -29.5 t-8.5 -12t-15 -2h-176v-899q0 -8 -4 -15q-8 -12 -23 -12h-86v926h-156z" />
<glyph unicode="&#xfb03;" horiz-adv-x="1259" d="M29 926v54q0 19 3 29.5t10 12.5t19 2h123v152q0 117 35 182t85 98t104.5 41t95.5 8q61 0 116.5 -18.5t96.5 -46.5q53 47 119.5 60t132.5 13q98 0 152.5 -19t54.5 -54q0 -14 -3.5 -32.5t-9.5 -35.5q-84 39 -192 39q-43 0 -85 -7t-76 -32.5t-54.5 -78t-20.5 -142.5v-127 h172q0 -35 -1 -54.5t-4 -29.5t-8 -12t-15 -2h-144v-899q0 -8 -4 -15q-8 -12 -24 -12h-84v926h-326v-899q0 -8 -4 -15q-8 -12 -23 -12h-86v926h-155zM297 1024h326v129q0 129 36 207q-33 23 -70.5 34t-90.5 11q-25 0 -60 -5t-65.5 -26.5t-53 -67.5t-22.5 -126v-156zM1028 0 v969q0 41 23.5 48t89.5 7v-997q0 -10 -1 -15.5t-12.5 -8.5t-33.5 -3h-66z" />
<glyph unicode="&#xfb04;" horiz-adv-x="1280" d="M29 926v54q0 19 3 29.5t10 12.5t19 2h123v152q0 117 35 182t85 98t104.5 41t95.5 8q59 0 112.5 -17.5t94.5 -43.5q47 47 105 58t112 11q86 0 143 -18t90 -37l-2 -2h2v-1429q0 -10 -1 -15.5t-11 -8.5t-33 -3h-65v1391q-18 6 -46 12t-71 6q-35 0 -71 -5t-64.5 -27.5 t-46 -72t-17.5 -135.5v-145h172q0 -35 -1 -54.5t-4 -29.5t-8 -12t-15 -2h-144v-899q0 -8 -4 -15q-8 -12 -24 -12h-84v926h-326v-899q0 -8 -4 -15q-8 -12 -23 -12h-86v926h-155zM297 1024h326v129q0 127 34 207q-33 23 -69.5 34t-89.5 11q-25 0 -60 -5t-65.5 -26.5t-53 -67.5 t-22.5 -126v-156z" />
</font>
</defs>
</svg>
